<svg width="36" height="36" viewBox="0 0 36 36" fill="none" xmlns="http://www.w3.org/2000/svg">
<path d="M28.2215 18.6136C28.2391 17.272 28.602 15.9567 29.2765 14.7899C29.9509 13.6231 30.915 12.6428 32.079 11.9401C31.3395 10.9032 30.364 10.0498 29.2299 9.44783C28.0959 8.84583 26.8344 8.51177 25.5459 8.47218C22.7971 8.18889 20.1324 10.0872 18.7317 10.0872C17.3039 10.0872 15.1473 8.50031 12.825 8.54723C11.3228 8.59488 9.8589 9.02378 8.57578 9.79214C7.29266 10.5605 6.23412 11.6421 5.50331 12.9316C2.33757 18.3134 4.69892 26.2228 7.73144 30.573C9.24867 32.7032 11.0219 35.0826 13.3421 34.9982C15.6125 34.9058 16.4605 33.5767 19.2012 33.5767C21.9164 33.5767 22.7119 34.9982 25.0792 34.9446C27.5155 34.9058 29.0505 32.805 30.5145 30.6546C31.6046 29.1368 32.4435 27.4592 33 25.6841C31.5846 25.0963 30.3767 24.1124 29.5269 22.8551C28.6772 21.5977 28.2232 20.1226 28.2215 18.6136Z" fill="white"/>
<path d="M23.7478 5.61032C25.0762 4.04452 25.7307 2.03195 25.5722 0C23.5427 0.209298 21.6681 1.16169 20.3217 2.66742C19.6635 3.403 19.1593 4.25877 18.8381 5.18578C18.5169 6.1128 18.3849 7.09289 18.4496 8.07003C19.4647 8.08029 20.4689 7.86426 21.3867 7.4382C22.3044 7.01213 23.1118 6.38715 23.7478 5.61032Z" fill="white"/>
</svg>
