<svg width="32" height="32" viewBox="0 0 32 32" fill="none" xmlns="http://www.w3.org/2000/svg">
<path d="M14.267 8.96644C14.5337 9.23311 14.6617 9.55533 14.651 9.93311C14.6394 10.3109 14.5003 10.6331 14.2337 10.8998L10.467 14.6664L25.3337 14.6664C25.7114 14.6664 26.0283 14.7944 26.2843 15.0504C26.5394 15.3055 26.667 15.622 26.667 15.9998C26.667 16.3776 26.5394 16.6944 26.2843 16.9504C26.0283 17.2056 25.7114 17.3331 25.3337 17.3331L10.467 17.3331L14.267 21.1331C14.5337 21.3998 14.667 21.7167 14.667 22.0838C14.667 22.45 14.5337 22.7664 14.267 23.0331C14.0003 23.2998 13.6834 23.4331 13.3163 23.4331C12.9501 23.4331 12.6337 23.2998 12.367 23.0331L6.26699 16.9331C6.13366 16.7998 6.03899 16.6553 5.98299 16.4998C5.92788 16.3442 5.90032 16.1776 5.90032 15.9998C5.90032 15.822 5.92788 15.6553 5.98299 15.4998C6.03899 15.3442 6.13366 15.1998 6.26699 15.0664L12.4003 8.93311C12.6448 8.68866 12.9501 8.56644 13.3163 8.56644C13.6834 8.56644 14.0003 8.69977 14.267 8.96644Z" fill="#13B1C6"/>
</svg>
