<svg width="96" height="37" viewBox="0 0 96 37" fill="none" xmlns="http://www.w3.org/2000/svg">
<path d="M13.7737 22.6531C13.0774 21.6338 12.1678 20.778 11.108 20.145C10.0481 19.512 8.86341 19.1168 7.63576 18.9868H3.42309C2.51787 18.9894 1.65031 19.3494 1.00922 19.9885C0.368133 20.6275 0.00541336 21.4939 1.37405e-06 22.399V32.3549C-0.000401804 32.8041 0.0879248 33.249 0.259911 33.664C0.431898 34.079 0.684157 34.4559 1.00221 34.7731C1.32026 35.0904 1.69785 35.3417 2.11329 35.5127C2.52873 35.6836 2.97384 35.7709 3.42309 35.7694H7.63804C8.86674 35.655 10.0547 35.2692 11.1161 34.6398C12.1774 34.0104 13.0857 33.153 13.7753 32.1297C14.6806 30.7153 15.1618 29.0711 15.1618 27.3918C15.1618 25.7125 14.6806 24.0683 13.7753 22.6538L13.7737 22.6531ZM24.4644 18.6757C22.7456 18.6831 21.0675 19.1993 19.6418 20.1592C18.2161 21.1191 17.1066 22.4797 16.4533 24.0693C15.8 25.659 15.6321 27.4065 15.9709 29.0915C16.3097 30.7764 17.1399 32.3233 18.3569 33.537C19.5738 34.7506 21.123 35.5768 22.8089 35.9111C24.4949 36.2454 26.2421 36.073 27.8301 35.4156C29.4182 34.7582 30.776 33.6452 31.7322 32.2171C32.6885 30.789 33.2003 29.1097 33.2032 27.391C33.1999 25.0766 32.2775 22.8583 30.6387 21.2239C28.9999 19.5895 26.779 18.6729 24.4644 18.6757ZM43.7531 34.8665L39.1753 29.0568V33.0341C39.1677 33.7637 38.8722 34.4607 38.3533 34.9735C37.8343 35.4863 37.1338 35.7734 36.4041 35.7724C35.7277 35.7796 35.0727 35.5355 34.5661 35.0874C34.0594 34.6392 33.7372 34.0189 33.6618 33.3468V21.7525C33.6601 21.3887 33.7306 21.0282 33.869 20.6917C34.0075 20.3553 34.2113 20.0497 34.4687 19.7925C34.726 19.5353 35.0318 19.3317 35.3683 19.1934C35.7048 19.0551 36.0654 18.9849 36.4292 18.9868H36.713C37.0664 19.0088 37.4117 19.1027 37.7276 19.2628C38.0435 19.4229 38.3233 19.6458 38.55 19.9179L43.1316 25.6986V21.7548C43.1386 21.0227 43.433 20.3227 43.9514 19.8058C44.4698 19.2889 45.1707 18.9964 45.9028 18.9914C46.5823 18.9907 47.2382 19.2407 47.7447 19.6937C48.2511 20.1467 48.5726 20.7706 48.6474 21.446V33.0379C48.6453 33.7715 48.3525 34.4744 47.833 34.9924C47.3135 35.5104 46.6098 35.8013 45.8762 35.8013C45.7808 35.8047 45.6853 35.7953 45.5924 35.7732C45.2402 35.7554 44.8954 35.6658 44.5791 35.5099C44.2628 35.354 43.9817 35.135 43.7531 34.8665ZM65.4745 21.4414V29.3656C65.2713 31.2114 64.3941 32.9173 63.011 34.1565C61.6279 35.3956 59.8361 36.0808 57.9791 36.0808C56.122 36.0808 54.3302 35.3956 52.9471 34.1565C51.564 32.9173 50.6868 31.2114 50.4836 29.3656V21.4414C50.5624 20.7653 50.8868 20.1416 51.3953 19.689C51.9037 19.2363 52.5607 18.9862 53.2415 18.9862C53.9223 18.9862 54.5793 19.2363 55.0878 19.689C55.5962 20.1416 55.9206 20.7653 55.9994 21.4414V28.7739C56.0306 29.2777 56.2528 29.7508 56.6207 30.0965C56.9886 30.4423 57.4745 30.6348 57.9794 30.6348C58.4843 30.6348 58.9702 30.4423 59.3381 30.0965C59.706 29.7508 59.9283 29.2777 59.9595 28.7739V21.4414C60.0399 20.7636 60.3667 20.139 60.8776 19.6865C61.3886 19.2339 62.0481 18.9849 62.7307 18.9868C63.4114 18.9817 64.0697 19.2302 64.5771 19.684C65.0845 20.1378 65.4047 20.7643 65.4752 21.4414H65.4745ZM79.872 27.2229C80.6989 28.1159 81.7716 28.7442 82.955 29.0287C83.2958 29.1139 83.5506 29.1686 83.8891 29.2257C84.1097 29.279 84.3269 29.3456 84.5395 29.425C84.6557 29.4925 84.7602 29.5783 84.8491 29.679C84.9582 29.8039 85.0182 29.9642 85.018 30.1301V30.2137C85.0137 30.4374 84.9222 30.6505 84.7632 30.8078C84.6998 30.8707 84.6247 30.9205 84.5421 30.9543C84.4594 30.9881 84.3709 31.0053 84.2817 31.0048C84.2527 31.0048 84.1957 30.9766 84.1676 30.9766C83.8928 30.9314 83.6262 30.8458 83.3764 30.7226C83.0739 30.6149 82.7806 30.4829 82.4994 30.3278C82.225 30.2157 81.9687 30.0637 81.7387 29.8768C81.4321 29.6703 81.0741 29.5531 80.7048 29.538C80.3355 29.523 79.9692 29.6108 79.6468 29.7916C79.3701 29.9389 79.1252 30.1394 78.9262 30.3815C78.7271 30.6236 78.5778 30.9026 78.4868 31.2025C78.4087 31.4581 78.371 31.7242 78.3749 31.9913C78.3685 32.3796 78.4461 32.7647 78.6023 33.1202C78.7585 33.4757 78.9898 33.7932 79.2802 34.0511C80.6902 35.3234 82.5278 36.0181 84.4269 35.9968C84.5129 36.0015 84.599 35.992 84.6818 35.9686H84.7365C85.8647 35.9844 86.9701 35.6515 87.9019 35.0153C88.8336 34.379 89.5461 33.4706 89.9419 32.4142C90.2782 31.6013 90.4177 30.7205 90.349 29.8434C90.2802 28.9664 90.0052 28.118 89.5464 27.3675C89.106 26.6125 88.4718 25.989 87.7093 25.5617C87.3088 25.3273 86.8933 25.1194 86.4656 24.9395C85.7156 24.6353 84.9914 24.474 84.2025 24.2337C84.0211 24.1888 83.8487 24.1131 83.6929 24.01C83.6098 23.9462 83.5414 23.8651 83.4925 23.7725C83.4435 23.6798 83.4151 23.5777 83.4092 23.473C83.4046 23.3452 83.4366 23.2186 83.5016 23.1084C83.5666 22.9982 83.6617 22.9088 83.7758 22.8508C83.8919 22.768 84.029 22.7195 84.1714 22.7109C84.4911 22.708 84.8051 22.7961 85.0766 22.9649C85.5346 23.246 86.0186 23.4824 86.5219 23.6708C87.0576 23.8618 87.6376 23.8914 88.1901 23.756C88.5099 23.6304 88.7964 23.4326 89.0271 23.1779C89.2578 22.9232 89.4264 22.6186 89.5197 22.288C89.5651 22.1232 89.5836 21.9521 89.5745 21.7814C89.5809 21.4226 89.4991 21.0677 89.3362 20.7479C89.1734 20.4282 88.9344 20.1533 88.6404 19.9475C87.9523 19.4418 87.1758 19.0693 86.3507 18.8492C85.6471 18.6224 84.9121 18.5079 84.1729 18.5099C83.5032 18.5053 82.8366 18.6006 82.1951 18.7929C81.2926 19.0232 80.4821 19.5237 79.872 20.2274C79.4215 20.6904 79.0671 21.2379 78.8291 21.8384C78.5911 22.4389 78.4742 23.0805 78.4852 23.7263C78.4746 24.3721 78.5916 25.0136 78.8296 25.6141C79.0676 26.2145 79.4218 26.762 79.872 27.2252V27.2229ZM69.4643 24.4847V33.3429C69.5396 34.0151 69.8618 34.6354 70.3685 35.0835C70.8751 35.5317 71.5301 35.7758 72.2065 35.7686C72.9363 35.77 73.637 35.483 74.1561 34.9701C74.6752 34.4572 74.9705 33.76 74.9777 33.0303V24.4854H75.5711C75.9361 24.4915 76.2986 24.4249 76.6376 24.2894C76.9766 24.1539 77.2853 23.9523 77.5455 23.6963C77.8058 23.4404 78.0125 23.1351 78.1536 22.7985C78.2948 22.4618 78.3674 22.1004 78.3674 21.7354C78.3674 21.3703 78.2948 21.0089 78.1536 20.6723C78.0125 20.3356 77.8058 20.0304 77.5455 19.7744C77.2853 19.5185 76.9766 19.3169 76.6376 19.1814C76.2986 19.0459 75.9361 18.9793 75.5711 18.9853H68.8375C68.116 18.9973 67.4281 19.2923 66.9221 19.8068C66.4161 20.3212 66.1326 21.0138 66.1326 21.7354C66.1326 22.4569 66.4161 23.1496 66.9221 23.664C67.4281 24.1784 68.116 24.4734 68.8375 24.4854H69.4612L69.4643 24.4847Z" fill="#CB0879"/>
<path d="M13.7684 3.94069C13.0736 2.92075 12.165 2.06429 11.1059 1.43079C10.0467 0.797285 8.86234 0.401927 7.635 0.272176H3.42309C2.97382 0.270572 2.52865 0.357735 2.11317 0.528656C1.69768 0.699578 1.32006 0.950892 1.00199 1.26816C0.683914 1.58544 0.431658 1.96241 0.259707 2.37745C0.0877563 2.79248 -0.00050169 3.2374 2.14504e-06 3.68664V13.6425C-0.000201018 14.0916 0.0882788 14.5362 0.260364 14.951C0.43245 15.3658 0.684753 15.7425 1.0028 16.0595C1.32084 16.3765 1.69836 16.6276 2.1137 16.7984C2.52903 16.9692 2.97401 17.0563 3.42309 17.0547H7.63728C8.86811 16.9399 10.0576 16.5511 11.1186 15.9167C12.1795 15.2823 13.0849 14.4184 13.7684 13.3885C14.6876 11.9908 15.1701 10.3513 15.1544 8.67864C15.1748 6.99653 14.6921 5.34667 13.7684 3.94069ZM9.18756 10.3703C8.96582 10.6923 8.68121 10.9661 8.35086 11.1753C8.02051 11.3844 7.65125 11.5246 7.26531 11.5873H5.48606V5.74414H7.2113C8.00283 5.895 8.70876 6.3378 9.18908 6.98472C9.51407 7.48826 9.6817 8.07718 9.6706 8.67636C9.66927 9.27437 9.50319 9.86046 9.1906 10.3703H9.18756ZM16.513 2.72672C16.5917 2.05097 16.9159 1.42768 17.4241 0.975309C17.9323 0.522933 18.5889 0.272997 19.2693 0.272997C19.9497 0.272997 20.6063 0.522933 21.1145 0.975309C21.6227 1.42768 21.9469 2.05097 22.0256 2.72672V10.0326C22.0569 10.5359 22.2788 11.0083 22.6463 11.3537C23.0138 11.699 23.4991 11.8913 24.0034 11.8913C24.5077 11.8913 24.9931 11.699 25.3605 11.3537C25.728 11.0083 25.95 10.5359 25.9812 10.0326V2.72672C26.0592 2.05012 26.3833 1.42581 26.8917 0.972616C27.4002 0.519426 28.0576 0.268999 28.7387 0.268999C29.4198 0.268999 30.0772 0.519426 30.5857 0.972616C31.0941 1.42581 31.4182 2.05012 31.4962 2.72672V10.651C31.2891 12.4931 30.4106 14.1945 29.0284 15.4299C27.6463 16.6654 25.8573 17.3484 24.0034 17.3484C22.1495 17.3484 20.3606 16.6654 18.9784 15.4299C17.5962 14.1945 16.7177 12.4931 16.5107 10.651V2.72672H16.513ZM45.2745 0.272176C44.546 0.27919 43.8498 0.573374 43.337 1.0908C42.8242 1.60823 42.5364 2.3071 42.536 3.03554V6.98472L37.9263 1.20395C37.7012 0.928992 37.4213 0.704079 37.1043 0.543624C36.7873 0.383169 36.4402 0.290711 36.0854 0.272176H35.8017C35.4401 0.269369 35.0816 0.337897 34.7466 0.473835C34.4116 0.609773 34.1067 0.810452 33.8493 1.06438C33.592 1.31831 33.3873 1.6205 33.2469 1.95365C33.1065 2.2868 33.0332 2.64437 33.0312 3.00588V14.6306C33.1165 15.3279 33.4638 15.9666 34.0027 16.4172C34.5417 16.8679 35.2319 17.0966 35.9333 17.057C36.6347 17.0174 37.2948 16.7125 37.7797 16.2041C38.2645 15.6957 38.5377 15.0219 38.5439 14.3195V10.3421L43.1248 16.1518C43.3974 16.4493 43.7297 16.686 44.1 16.8464C44.4703 17.0068 44.8702 17.0874 45.2737 17.0828C45.6351 17.0814 45.9926 17.0088 46.3258 16.8692C46.6591 16.7295 46.9615 16.5255 47.2159 16.2688C47.4702 16.0122 47.6715 15.7079 47.8081 15.3734C47.9447 15.0389 48.0141 14.6808 48.0122 14.3195V2.72672C47.9429 2.05026 47.624 1.4239 47.1176 0.970017C46.6112 0.516131 45.9538 0.267316 45.2737 0.272176H45.2745ZM83.8192 16.1533L79.2383 10.3421L83.8192 16.1533ZM83.8192 16.1533C84.0922 16.4504 84.4245 16.6867 84.7947 16.8471C85.1649 17.0075 85.5647 17.0883 85.9681 17.0844C86.7016 17.0842 87.4051 16.7932 87.9244 16.2752C88.4438 15.7572 88.7365 15.0544 88.7385 14.321V2.72672C88.6592 2.02497 88.3143 1.38017 87.7747 0.92459C87.235 0.469013 86.5414 0.237199 85.8363 0.276702C85.1311 0.316205 84.4678 0.62403 83.9824 1.13703C83.4969 1.65003 83.2263 2.32932 83.2258 3.03554V6.98472L78.6427 1.20395C78.3763 0.898681 78.0452 0.656649 77.6734 0.495465C77.3017 0.334281 76.8987 0.258001 76.4938 0.272176C76.1322 0.269269 75.7736 0.337722 75.4385 0.473615C75.1034 0.609508 74.7984 0.81017 74.5409 1.06411C74.2835 1.31805 74.0787 1.62027 73.9383 1.95347C73.7979 2.28667 73.7246 2.6443 73.7226 3.00588V14.6306C73.8064 15.3293 74.1534 15.9697 74.6927 16.4217C75.2321 16.8737 75.9235 17.1033 76.6261 17.0636C77.3287 17.024 77.9899 16.7182 78.475 16.2084C78.9601 15.6986 79.2328 15.0232 79.2376 14.3195V10.3421L83.8184 16.1533H83.8192ZM55.6822 14.3195C55.6731 15.0201 55.3985 15.6913 54.9139 16.1974C54.4293 16.7035 53.7706 17.007 53.071 17.0465C52.3713 17.0859 51.6827 16.8585 51.1442 16.4101C50.6057 15.9618 50.2573 15.3258 50.1695 14.6306V3.03782C50.1634 2.67203 50.2302 2.30868 50.366 1.96897C50.5018 1.62926 50.7039 1.31997 50.9604 1.05914C51.217 0.798306 51.5229 0.591151 51.8603 0.449745C52.1977 0.30834 52.56 0.235515 52.9258 0.235515C53.2917 0.235515 53.6539 0.30834 53.9913 0.449745C54.3288 0.591151 54.6347 0.798306 54.8912 1.05914C55.1478 1.31997 55.3499 1.62926 55.4857 1.96897C55.6214 2.30868 55.6882 2.67203 55.6822 3.03782V6.98701L60.2919 1.11876C60.5428 0.845608 60.8488 0.628931 61.1898 0.483104C61.5308 0.337277 61.8989 0.265637 62.2697 0.272936C62.6311 0.274031 62.9888 0.346437 63.3222 0.486006C63.6556 0.625574 63.9581 0.829561 64.2125 1.08627C64.4669 1.34299 64.6682 1.64738 64.8047 1.982C64.9412 2.31663 65.0104 2.67491 65.0082 3.0363C65.0252 3.64906 64.8253 4.24814 64.4437 4.72794L61.1918 8.50826L64.4437 12.624C64.8251 13.1048 65.0249 13.7045 65.0082 14.3179C65.0102 14.6793 64.9409 15.0375 64.8043 15.372C64.6677 15.7065 64.4664 16.0109 64.2121 16.2675C63.9577 16.5242 63.6552 16.7282 63.3219 16.8678C62.9886 17.0075 62.6311 17.08 62.2697 17.0813C61.8987 17.0889 61.5303 17.0171 61.1892 16.8708C60.8481 16.7246 60.5422 16.5072 60.2919 16.2332L55.6822 10.3665V14.3195ZM66.3995 14.6306V3.03782C66.3995 2.31038 66.6885 1.61273 67.2029 1.09835C67.7173 0.58397 68.415 0.294995 69.1425 0.294995C69.87 0.294995 70.5677 0.58397 71.0821 1.09835C71.5965 1.61273 71.8855 2.31038 71.8855 3.03782V14.3195C71.881 15.0195 71.6099 15.6914 71.1275 16.1987C70.6451 16.7059 69.9875 17.0103 69.2885 17.05C68.5896 17.0896 67.9018 16.8615 67.3651 16.412C66.8284 15.9626 66.4831 15.3256 66.3995 14.6306ZM95.358 2.72672V2.52972C95.3464 1.85483 95.0701 1.21149 94.5887 0.738321C94.1073 0.265147 93.4593 0 92.7842 0C92.1092 0 91.4611 0.265147 90.9797 0.738321C90.4983 1.21149 90.222 1.85483 90.2104 2.52972L90.2652 5.46423C90.3708 5.99024 90.6583 6.46226 91.0773 6.79736C91.4963 7.13245 92.02 7.30921 92.5564 7.29658C93.0905 7.30079 93.6098 7.12089 94.0268 6.78716C94.4438 6.45343 94.7331 5.98625 94.8461 5.46423L95.358 2.72672Z" fill="#E0912F"/>
<path d="M5.47363 30.2793H7.25135C7.63672 30.2167 8.00537 30.0766 8.335 29.8673C8.66463 29.6581 8.94837 29.3842 9.16904 29.0622C9.47967 28.5524 9.64487 27.9673 9.64675 27.3704C9.66105 26.7812 9.49403 26.2018 9.16828 25.7106C8.69931 25.0463 7.98979 24.5911 7.1905 24.4418H5.47363V30.28V30.2793ZM21.2137 27.3734C21.2152 26.6379 21.4715 25.9256 21.9391 25.3579C22.4066 24.7901 23.0565 24.4019 23.7781 24.2595C24.4997 24.117 25.2484 24.229 25.8967 24.5765C26.5449 24.924 27.0527 25.4854 27.3336 26.1652C27.6144 26.845 27.651 27.6011 27.437 28.3048C27.2231 29.0085 26.7718 29.6163 26.1601 30.0248C25.5484 30.4332 24.814 30.6169 24.082 30.5447C23.3501 30.4725 22.6657 30.1489 22.1456 29.6289C21.5499 29.0292 21.215 28.2187 21.2137 27.3734Z" fill="white"/>
<path d="M93.2308 36.0559C93.5824 36.0559 93.9262 35.9517 94.2185 35.7563C94.5108 35.561 94.7387 35.2834 94.8732 34.9585C95.0078 34.6337 95.043 34.2762 94.9744 33.9314C94.9058 33.5866 94.7365 33.2698 94.4879 33.0212C94.2393 32.7726 93.9225 32.6032 93.5777 32.5346C93.2328 32.4661 92.8754 32.5013 92.5505 32.6358C92.2257 32.7704 91.9481 32.9982 91.7527 33.2906C91.5574 33.5829 91.4531 33.9266 91.4531 34.2782C91.4528 34.5117 91.4986 34.7431 91.5878 34.9589C91.6771 35.1747 91.808 35.3708 91.9731 35.5359C92.1383 35.7011 92.3344 35.832 92.5502 35.9212C92.766 36.0105 92.9973 36.0562 93.2308 36.0559ZM91.7855 34.2721C91.7933 33.9881 91.8847 33.7126 92.0481 33.4802C92.2116 33.2478 92.4399 33.0687 92.7046 32.9654C92.9693 32.862 93.2586 32.839 93.5363 32.8991C93.814 32.9593 94.0678 33.1 94.266 33.3036C94.4642 33.5072 94.598 33.7647 94.6506 34.0439C94.7032 34.3232 94.6724 34.6117 94.5619 34.8735C94.4515 35.1353 94.2663 35.3588 94.0296 35.5159C93.7928 35.673 93.515 35.7569 93.2308 35.757C93.0372 35.7584 92.8453 35.7207 92.6666 35.6462C92.4878 35.5717 92.326 35.4618 92.1908 35.3232C92.0555 35.1847 91.9497 35.0202 91.8795 34.8397C91.8093 34.6592 91.7764 34.4664 91.7825 34.2729L91.7855 34.2721ZM92.8574 34.4144H93.2134L93.7542 35.3051H94.1018L93.5184 34.4022C93.591 34.4023 93.6629 34.3876 93.7296 34.3589C93.7964 34.3302 93.8565 34.2882 93.9064 34.2354C93.9563 34.1826 93.9948 34.1201 94.0196 34.0519C94.0445 33.9836 94.0551 33.911 94.0509 33.8385C94.0509 33.4361 93.8113 33.2566 93.3267 33.2566H92.5432V35.3067H92.8543L92.8574 34.4144ZM92.8574 34.1519V33.5183H93.2803C93.4956 33.5183 93.7253 33.5647 93.7253 33.8226C93.7253 34.136 93.4918 34.1557 93.227 34.1557L92.8574 34.1519Z" fill="#CB0879"/>
</svg>
