<svg width="114" height="56" viewBox="0 0 114 56" fill="none" xmlns="http://www.w3.org/2000/svg">
<g clip-path="url(#clip0_379_22005)">
<path d="M90.9357 24.417C95.0357 28.559 109.902 43.569 114.001 47.708C110.35 47.671 106.809 47.522 103.159 47.483C103.115 51.0864 103.074 54.6904 103.034 58.295C98.9337 54.156 84.0708 39.141 79.9688 35.004L90.9357 24.417Z" fill="#1AB2C8"/>
<path d="M92.7167 29.4375C95.5947 32.3475 105.634 42.4815 108.517 45.3895C105.951 45.3635 103.463 45.2585 100.899 45.2315C100.868 47.7648 100.839 50.2982 100.811 52.8315C97.9307 49.9235 87.8967 39.7865 85.0107 36.8795L92.7167 29.4375Z" fill="#004268"/>
<path d="M85.3376 35.004C81.2376 39.141 66.3716 54.156 62.2726 58.295C62.228 54.6897 62.1863 51.0857 62.1476 47.483C58.4976 47.522 54.9567 47.671 51.3057 47.708C55.4057 43.569 70.2737 28.559 74.3707 24.417L85.3376 35.004Z" fill="#1AB2C8"/>
<path d="M80.2941 36.8756C77.4111 39.7826 67.3771 49.9196 64.4941 52.8276C64.4627 50.2943 64.4334 47.7609 64.4061 45.2276C61.8411 45.2546 59.3541 45.3596 56.7881 45.3856C59.6681 42.4776 69.7061 32.3446 72.5881 29.4336L80.2941 36.8756Z" fill="#004268"/>
<path d="M61.9161 24.9771C61.2471 22.3981 60.4922 19.8411 59.7832 17.2711C61.7472 15.6711 63.7272 14.088 65.6962 12.493C65.8588 12.3582 65.9735 12.1744 66.0232 11.9691C66.8479 9.56906 67.6792 7.16904 68.5172 4.76904C71.0862 4.66904 73.6632 4.63307 76.2312 4.49207C78.3942 3.04107 80.4982 1.49205 82.6382 -0.00195312C84.5508 1.34805 86.4615 2.69841 88.3701 4.04907C88.6791 4.24907 88.9701 4.56207 89.3701 4.53107C91.8371 4.60107 94.3001 4.69304 96.7651 4.76904C97.6581 7.28204 98.4812 9.82808 99.4132 12.3221C101.413 14.0111 103.483 15.6051 105.499 17.2731C104.789 19.8411 104.034 22.4001 103.366 24.9791V21.941C104.035 24.52 104.79 27.077 105.499 29.647C103.535 31.247 101.555 32.83 99.5862 34.425C99.4237 34.56 99.309 34.7438 99.2592 34.949C98.4352 37.349 97.6041 39.749 96.7661 42.149C94.1961 42.249 91.6201 42.2861 89.0521 42.4261C86.8891 43.8771 84.7851 45.426 82.6451 46.92C80.7325 45.5707 78.8219 44.2207 76.9132 42.8701C76.6042 42.6701 76.3132 42.3571 75.9132 42.3881C73.4472 42.3181 70.9832 42.2251 68.5192 42.1501C67.6262 39.6371 66.8042 37.091 65.8712 34.597C63.8712 32.908 61.8012 31.3141 59.7852 29.6451C60.4952 27.0771 61.2502 24.5181 61.9182 21.9391L61.9161 24.9771Z" fill="#1AB2C8"/>
<path d="M64.4579 24.791C63.8699 22.528 63.2079 20.285 62.5869 18.03C64.3099 16.63 66.0479 15.238 67.7749 13.838C67.9176 13.7195 68.0183 13.5582 68.0619 13.3779C68.7846 11.2706 69.5136 9.16559 70.2489 7.06293C72.5039 6.97593 74.7638 6.94295 77.0168 6.81995C78.9168 5.54695 80.7609 4.18493 82.6379 2.87793C84.3159 4.06193 85.9922 5.24661 87.6669 6.43195C87.9379 6.60995 88.1969 6.88198 88.5419 6.85498C90.7059 6.91598 92.8669 6.99696 95.0299 7.06396C95.8139 9.26396 96.5349 11.5019 97.3529 13.6899C99.1039 15.1719 100.924 16.5699 102.692 18.0339C102.069 20.2869 101.406 22.534 100.821 24.795V22.129C101.408 24.392 102.071 26.635 102.692 28.89C100.968 30.29 99.2309 31.682 97.5039 33.082C97.3616 33.2005 97.2613 33.3618 97.2179 33.5419C96.4946 35.6493 95.7655 37.7543 95.0309 39.8569C92.7769 39.9449 90.5159 39.977 88.2629 40.1C86.3629 41.373 84.5188 42.7349 82.6418 44.0419C80.9638 42.8579 79.2876 41.6733 77.6129 40.488C77.3419 40.31 77.0829 40.0379 76.7369 40.0649C74.5729 40.0039 72.4119 39.922 70.2489 39.856C69.4649 37.656 68.7489 35.418 67.9259 33.23C66.1749 31.748 64.3549 30.35 62.5869 28.886C63.2099 26.633 63.8729 24.3859 64.4579 22.1249V24.791Z" fill="#004268"/>
<path d="M79.0645 28.9169C79.0705 28.8169 79.1645 28.768 79.2705 28.741C79.5575 28.667 79.8455 28.597 80.1335 28.525L81.1865 28.2629C81.4466 28.209 81.6835 28.0757 81.8646 27.8813C82.0457 27.687 82.162 27.4412 82.1975 27.178C82.4325 25.968 82.6575 24.756 82.8865 23.546C82.8859 23.538 82.8859 23.53 82.8865 23.522C82.9145 23.438 82.9395 23.3359 83.0485 23.3359C83.1575 23.3359 83.1905 23.4359 83.2075 23.5229C83.2915 23.9519 83.3725 24.382 83.4535 24.812C83.6095 25.633 83.7535 26.456 83.9255 27.272C83.9689 27.5096 84.0812 27.7292 84.2485 27.9035C84.4159 28.0778 84.6307 28.199 84.8665 28.252C85.4865 28.416 86.1125 28.562 86.7345 28.718C86.8037 28.7312 86.8709 28.7534 86.9344 28.7839C86.9684 28.7965 86.9976 28.8191 87.0183 28.8488C87.039 28.8785 87.05 28.9138 87.05 28.95C87.05 28.9861 87.039 29.0214 87.0183 29.0511C86.9976 29.0808 86.9684 29.1034 86.9344 29.116C86.8416 29.1561 86.7447 29.1862 86.6455 29.2059C86.0775 29.3479 85.5094 29.486 84.9454 29.627C84.6757 29.6835 84.4305 29.8233 84.2443 30.0266C84.0581 30.2298 83.9403 30.4863 83.9075 30.7599C83.6808 31.9599 83.4532 33.1599 83.2245 34.3599C83.2245 34.3599 83.2245 34.3679 83.2245 34.3719C83.2025 34.4649 83.1725 34.5719 83.0585 34.5649C82.9445 34.5579 82.9195 34.465 82.9025 34.374C82.8415 34.067 82.7855 33.7589 82.7275 33.4509C82.5485 32.5079 82.3835 31.563 82.1835 30.624C82.1396 30.3844 82.0253 30.1634 81.8552 29.9892C81.6851 29.815 81.4669 29.6955 81.2285 29.6459C80.5865 29.4829 79.9435 29.3249 79.3015 29.1639C79.1405 29.1239 79.0755 29.0579 79.0775 28.9219" fill="#1AB2C8"/>
<path d="M103.119 4.91113C103.627 4.91442 104.126 5.04399 104.57 5.28815C105.034 5.53306 105.416 5.90764 105.67 6.36615C105.928 6.80778 106.064 7.30959 106.065 7.8208C106.066 8.33201 105.932 8.83441 105.676 9.2771C105.423 9.73428 105.044 10.1092 104.584 10.3571C104.136 10.6091 103.63 10.7414 103.115 10.7414C102.601 10.7414 102.095 10.6091 101.646 10.3571C101.186 10.1089 100.806 9.73415 100.552 9.2771C100.295 8.83495 100.16 8.33234 100.161 7.8208C100.162 7.30926 100.299 6.80724 100.558 6.36615C100.813 5.90764 101.195 5.53306 101.658 5.28815C102.104 5.04395 102.603 4.91438 103.11 4.91113M103.11 5.3941C102.687 5.39643 102.27 5.50472 101.899 5.70911C101.512 5.91404 101.192 6.22659 100.977 6.60913C100.761 6.97652 100.646 7.3949 100.645 7.82129C100.644 8.24768 100.757 8.6667 100.971 9.03516C101.185 9.41576 101.502 9.72787 101.885 9.93512C102.259 10.1465 102.681 10.2576 103.11 10.2576C103.539 10.2576 103.961 10.1465 104.334 9.93512C104.718 9.72806 105.034 9.41586 105.246 9.03516C105.46 8.6664 105.572 8.24749 105.571 7.82129C105.57 7.39509 105.456 6.97683 105.24 6.60913C105.027 6.22595 104.707 5.91319 104.318 5.70911C103.948 5.50533 103.533 5.39706 103.11 5.3941ZM101.81 9.43811V6.30115H102.902C103.175 6.28901 103.448 6.31832 103.712 6.38812C103.875 6.44172 104.015 6.54708 104.112 6.68811C104.208 6.8224 104.26 6.9831 104.261 7.14813C104.262 7.25966 104.241 7.37025 104.198 7.47333C104.156 7.5764 104.093 7.66983 104.013 7.74811C103.837 7.9229 103.601 8.025 103.353 8.03412C103.453 8.07247 103.544 8.12875 103.623 8.20013C103.802 8.38989 103.959 8.59846 104.092 8.82214L104.48 9.43616H103.854L103.572 8.9411C103.439 8.66761 103.257 8.42037 103.036 8.21112C102.915 8.13114 102.77 8.09323 102.625 8.10315H102.325V9.43616L101.81 9.43811ZM102.322 7.67316H102.944C103.156 7.69426 103.368 7.64839 103.552 7.54211C103.605 7.50094 103.647 7.44798 103.675 7.38751C103.703 7.32704 103.717 7.26081 103.714 7.19415C103.715 7.10498 103.688 7.01774 103.636 6.94513C103.582 6.8701 103.506 6.813 103.419 6.78113C103.252 6.73584 103.079 6.71759 102.905 6.72711H102.322V7.67316Z" fill="#1AB2C8"/>
<path d="M90.8282 16.7607H76.1582V19.2147H90.8282V16.7607Z" fill="#1AB2C8"/>
<path d="M77.4 16.7607H74.915V41.7587H77.4V16.7607Z" fill="#1AB2C8"/>
<path d="M90.8287 17.001H88.3438V25.282H90.8287V17.001Z" fill="#1AB2C8"/>
<path d="M0.078125 28.0839H0.734131C0.922476 28.0878 1.10878 28.0444 1.27612 27.9579C1.43264 27.8736 1.56073 27.7449 1.64417 27.5879C1.73477 27.4193 1.78087 27.2303 1.77814 27.0389V20.6299H3.81317V27.0389C3.82035 27.5753 3.68394 28.1039 3.41809 28.5698C3.15224 29.0358 2.76658 29.4221 2.30115 29.6889C1.82428 29.9598 1.28354 30.0979 0.735168 30.0889H0.0791626L0.078125 28.0839ZM2.74213 19.4019C2.58769 19.4038 2.43449 19.3743 2.29181 19.3151C2.14913 19.256 2.02 19.1685 1.91217 19.0579C1.79983 18.9506 1.71089 18.8212 1.651 18.6778C1.59111 18.5344 1.56155 18.3803 1.56415 18.2249C1.56371 18.0739 1.59436 17.9243 1.65424 17.7856C1.71411 17.647 1.80194 17.5221 1.91217 17.4189C2.13233 17.1988 2.43083 17.0752 2.74213 17.0752C3.05342 17.0752 3.35199 17.1988 3.57214 17.4189C3.68238 17.5221 3.77015 17.647 3.83002 17.7856C3.88989 17.9243 3.9206 18.0739 3.92017 18.2249C3.92271 18.3802 3.89308 18.5344 3.83319 18.6777C3.7733 18.8211 3.68443 18.9506 3.57214 19.0579C3.46431 19.1685 3.33512 19.256 3.19244 19.3151C3.04977 19.3743 2.89656 19.4038 2.74213 19.4019ZM7.49414 17.8289V24.4759C7.48704 24.5453 7.49475 24.6154 7.51678 24.6815C7.53882 24.7477 7.57467 24.8084 7.62195 24.8596C7.66923 24.9109 7.72685 24.9515 7.79102 24.9788C7.85518 25.006 7.92443 25.0194 7.99414 25.0179H8.57013V27.0269H7.29816C6.97267 27.0303 6.652 26.9482 6.36816 26.7889C6.0911 26.6341 5.8602 26.4084 5.69916 26.1349C5.53498 25.8617 5.44919 25.5486 5.45117 25.2299V17.8299L7.49414 17.8289ZM8.37714 25.0179V27.0269L7.49414 26.7099V25.3529L8.37714 25.0179ZM9.90314 25.0179C10.0453 25.0383 10.1902 25.0237 10.3254 24.9755C10.4607 24.9272 10.5821 24.8467 10.6791 24.7409C10.8185 24.5008 10.8839 24.225 10.8671 23.9479V20.7629H12.9152V23.1279C12.9259 24.0581 12.7147 24.9775 12.2991 25.8099C12.0619 26.2272 11.7067 26.5652 11.2782 26.7816C10.8496 26.9979 10.3668 27.0829 9.89014 27.0259H8.37714V25.0169L9.90314 25.0179ZM9.99713 30.5949C9.8427 30.5967 9.68954 30.5672 9.54688 30.5081C9.40421 30.4489 9.27504 30.3614 9.16718 30.2509C9.05719 30.1454 8.96963 30.0186 8.90985 29.8784C8.85007 29.7382 8.81927 29.5873 8.81927 29.4349C8.81927 29.2824 8.85007 29.1316 8.90985 28.9914C8.96963 28.8512 9.05719 28.7244 9.16718 28.6189C9.27409 28.5067 9.40292 28.4178 9.54572 28.3575C9.68851 28.2973 9.84217 28.2672 9.99713 28.2689C10.1529 28.2676 10.3073 28.298 10.451 28.3582C10.5948 28.4183 10.7247 28.507 10.8331 28.6189C10.945 28.7233 11.0343 28.8496 11.0953 28.99C11.1564 29.1304 11.1878 29.2818 11.1878 29.4349C11.1878 29.5879 11.1564 29.7394 11.0953 29.8798C11.0343 30.0201 10.945 30.1465 10.8331 30.2509C10.7237 30.3613 10.5932 30.4485 10.4495 30.5076C10.3057 30.5667 10.1516 30.5964 9.99615 30.5949H9.99713ZM13.5972 27.0269C13.1123 27.0233 12.6421 26.861 12.2582 26.5649C11.8423 26.262 11.5004 25.8689 11.2582 25.4149C11.0281 25.0107 10.8974 24.5575 10.8771 24.0929L10.8641 20.7629H12.8981V23.9479C12.8822 24.2253 12.9551 24.5006 13.1061 24.7339C13.2049 24.8398 13.3273 24.9208 13.4634 24.9702C13.5996 25.0195 13.7455 25.0359 13.8892 25.0179H15.3271V27.0269H13.5972ZM13.0881 30.5949C12.9327 30.5964 12.7786 30.5667 12.6348 30.5076C12.4911 30.4485 12.3606 30.3613 12.2512 30.2509C12.1392 30.1465 12.05 30.0201 11.989 29.8798C11.9279 29.7394 11.8965 29.5879 11.8965 29.4349C11.8965 29.2818 11.9279 29.1304 11.989 28.99C12.05 28.8496 12.1392 28.7233 12.2512 28.6189C12.3597 28.5069 12.4898 28.4181 12.6337 28.358C12.7776 28.2978 12.9322 28.2675 13.0881 28.2689C13.2431 28.2672 13.3968 28.2974 13.5396 28.3576C13.6823 28.4178 13.8112 28.5068 13.9182 28.6189C14.0283 28.7244 14.1159 28.851 14.1757 28.9913C14.2356 29.1315 14.2665 29.2824 14.2665 29.4349C14.2665 29.5874 14.2356 29.7382 14.1757 29.8785C14.1159 30.0187 14.0283 30.1454 13.9182 30.2509C13.8103 30.3614 13.6811 30.4489 13.5385 30.5081C13.3958 30.5672 13.2426 30.5967 13.0881 30.5949ZM15.1221 25.0179V27.0269L14.2391 26.7099V25.3529L15.1221 25.0179ZM16.5682 25.0179C16.7103 25.0382 16.8552 25.0236 16.9904 24.9753C17.1256 24.9271 17.247 24.8466 17.3442 24.7409C17.483 24.5006 17.5479 24.2248 17.5311 23.9479V20.7629H19.5792V23.1279C19.5899 24.0581 19.3787 24.9775 18.9631 25.8099C18.7259 26.2272 18.3707 26.5652 17.9422 26.7816C17.5137 26.9979 17.0308 27.0829 16.5541 27.0259H15.1271V25.0169L16.5682 25.0179ZM17.1301 19.8779C16.9749 19.8793 16.8209 19.8496 16.6773 19.7905C16.5337 19.7314 16.4034 19.6442 16.2941 19.5339C16.1822 19.4295 16.093 19.3032 16.032 19.1628C15.971 19.0224 15.9395 18.871 15.9395 18.7179C15.9395 18.5648 15.971 18.4134 16.032 18.273C16.093 18.1326 16.1822 18.0063 16.2941 17.9019C16.4025 17.79 16.5326 17.7013 16.6763 17.6412C16.82 17.581 16.9743 17.5506 17.1301 17.5519C17.2851 17.5503 17.4387 17.5805 17.5815 17.6407C17.7243 17.7009 17.8532 17.7898 17.9601 17.9019C18.0701 18.0075 18.1576 18.1341 18.2174 18.2744C18.2772 18.4146 18.308 18.5655 18.308 18.7179C18.308 18.8703 18.2772 19.0212 18.2174 19.1614C18.1576 19.3017 18.0701 19.4283 17.9601 19.5339C17.8519 19.6448 17.7223 19.7325 17.579 19.7916C17.4358 19.8508 17.2821 19.8801 17.1271 19.8779H17.1301ZM20.2621 27.0269C19.7777 27.0231 19.3077 26.8608 18.9241 26.5649C18.5081 26.2622 18.1662 25.869 17.9241 25.4149C17.6939 25.0108 17.5633 24.5576 17.5432 24.0929L17.5162 20.7629H19.5641V23.9479C19.5482 24.2242 19.6181 24.4988 19.7642 24.7339C19.8635 24.841 19.987 24.9227 20.1245 24.9722C20.262 25.0216 20.4093 25.0373 20.5541 25.0179H22.6152V27.0269H20.2621ZM20.2222 19.8779C20.0667 19.8794 19.9126 19.8498 19.7688 19.7907C19.625 19.7316 19.4945 19.6443 19.3851 19.5339C19.2733 19.4294 19.1842 19.303 19.1233 19.1627C19.0624 19.0223 19.0309 18.8709 19.0309 18.7179C19.0309 18.5649 19.0624 18.4135 19.1233 18.2731C19.1842 18.1328 19.2733 18.0064 19.3851 17.9019C19.4937 17.79 19.6239 17.7012 19.7678 17.6411C19.9116 17.5809 20.0662 17.5505 20.2222 17.5519C20.5309 17.5554 20.8262 17.6786 21.046 17.8956C21.2657 18.1125 21.3927 18.4062 21.4001 18.7149C21.4017 18.868 21.3715 19.0198 21.3116 19.1607C21.2518 19.3016 21.1634 19.4287 21.0521 19.5339C20.9443 19.6444 20.8152 19.732 20.6725 19.7911C20.5298 19.8503 20.3766 19.8797 20.2222 19.8779ZM26.9141 20.1559C27.4743 20.1482 28.0264 20.2894 28.5142 20.5649C28.9847 20.8314 29.3753 21.2192 29.6451 21.6879C29.9233 22.1697 30.0666 22.7175 30.0601 23.2739V23.8689C30.0643 24.4164 29.921 24.955 29.6451 25.4279C29.3747 25.8972 28.9875 26.2885 28.5211 26.5639C28.0567 26.8435 27.5243 26.9898 26.9822 26.9869C26.5944 26.9875 26.2086 26.9295 25.8381 26.8149C25.4778 26.7053 25.1367 26.5403 24.8271 26.3259C24.5979 26.5497 24.3258 26.7249 24.0272 26.8409C23.7141 26.9653 23.38 27.0281 23.0432 27.0259H22.4681L21.5842 26.7089V25.3349L22.4681 25.0179H23.0432C23.1227 25.0228 23.2024 25.0112 23.2773 24.9839C23.3521 24.9565 23.4205 24.9139 23.4781 24.8589C23.5314 24.8 23.5724 24.7312 23.5988 24.6563C23.6252 24.5815 23.6366 24.5022 23.6321 24.4229V23.2729C23.6256 22.7166 23.769 22.1687 24.0471 21.6869C24.3169 21.2181 24.7075 20.8303 25.1782 20.5639C25.6659 20.2883 26.218 20.1471 26.7781 20.1549L26.9141 20.1559ZM28.0251 23.2749C28.0318 23.1266 28.0079 22.9786 27.9549 22.8399C27.9019 22.7013 27.821 22.5749 27.7172 22.4689C27.6108 22.3678 27.4851 22.2891 27.3477 22.2375C27.2102 22.186 27.0638 22.1627 26.9172 22.1689H26.7831C26.5804 22.164 26.3799 22.212 26.2012 22.3079C26.0379 22.3991 25.9035 22.5342 25.8132 22.6979C25.7166 22.8764 25.6679 23.077 25.6721 23.2799V24.4299C25.8323 24.6061 26.0284 24.7459 26.2471 24.8399C26.4797 24.939 26.7304 24.9887 26.9832 24.9859C27.1673 24.9867 27.3481 24.9361 27.5051 24.8399C27.6658 24.7433 27.7975 24.6051 27.8862 24.4399C27.9802 24.2676 28.0287 24.0741 28.0272 23.8779L28.0251 23.2749ZM31.4781 25.0189H36.7922C36.9139 25.0163 37.0306 24.9694 37.1202 24.8869C37.1745 24.8344 37.2165 24.7704 37.2431 24.6997C37.2697 24.629 37.2803 24.5532 37.2742 24.4779V17.8309H39.3271V25.2309C39.3301 25.5482 39.2442 25.8599 39.0792 26.1309C38.9167 26.4013 38.6887 26.6262 38.4161 26.7849C38.136 26.9487 37.8166 27.033 37.4921 27.0289H31.4822L31.4781 25.0189ZM33.1511 27.0279V18.6279H35.1992V27.0279H33.1511ZM41.0621 27.0279V17.8279H43.0961V27.0279H41.0621Z" fill="white"/>
<path d="M27.7939 14.5766C27.2475 14.8383 26.6396 14.9445 26.0369 14.8836C25.5022 14.8404 24.998 14.6168 24.6069 14.2496C24.3118 13.9523 24.1221 13.5665 24.0667 13.1512C24.0113 12.736 24.0931 12.314 24.2999 11.9496C24.4663 11.6754 24.707 11.4539 24.9939 11.3106C25.3041 11.1554 25.6472 11.0775 25.9939 11.0836H26.1299V11.7386H25.9939C25.6582 11.7235 25.329 11.8344 25.0709 12.0496C24.9528 12.1561 24.8599 12.2876 24.7989 12.4344C24.7378 12.5812 24.7102 12.7398 24.7179 12.8986C24.7145 13.0796 24.7545 13.2587 24.8345 13.421C24.9145 13.5833 25.0323 13.7241 25.178 13.8316C25.5198 14.0854 25.9314 14.2279 26.3569 14.2396C26.8526 14.2672 27.3476 14.1735 27.7989 13.9666L27.7939 14.5766ZM28.2939 9.69562C28.4184 10.0132 28.5589 10.3243 28.7149 10.6276C28.7763 10.7583 28.863 10.8756 28.9699 10.9726C29.0478 11.0254 29.1368 11.0597 29.23 11.0726C29.2321 11.0751 29.2347 11.0771 29.2376 11.0784C29.2405 11.0798 29.2437 11.0806 29.2469 11.0806V11.7356H25.9789V11.0806H28.2239C28.1408 11.0081 28.0754 10.9174 28.0329 10.8156C27.9663 10.6823 27.8796 10.4906 27.7729 10.2406C27.7389 10.1679 27.7056 10.0923 27.673 10.0136C27.6403 9.93494 27.6049 9.85359 27.5669 9.76959C27.3246 9.1522 26.8767 8.63732 26.2989 8.31165C26.0388 8.19958 25.7579 8.14424 25.4747 8.14941C25.1916 8.15459 24.9127 8.22012 24.6569 8.34161V7.74164C25.0968 7.56076 25.578 7.50403 26.048 7.57764C26.5203 7.66424 26.9567 7.88785 27.303 8.22064C27.7336 8.63671 28.0716 9.13899 28.2949 9.69464L28.2939 9.69562ZM26.4939 13.2956C26.438 13.2961 26.3825 13.2852 26.3309 13.2635C26.2793 13.2419 26.2327 13.2099 26.1939 13.1696C26.1533 13.1322 26.1209 13.0867 26.0987 13.0361C26.0766 12.9855 26.0652 12.9309 26.0652 12.8756C26.0652 12.8204 26.0766 12.7657 26.0987 12.7151C26.1209 12.6645 26.1533 12.6191 26.1939 12.5816C26.2328 12.5413 26.2794 12.5094 26.331 12.4877C26.3825 12.4661 26.438 12.4552 26.4939 12.4556C26.6053 12.4556 26.7122 12.4998 26.7909 12.5786C26.8697 12.6574 26.9139 12.7642 26.9139 12.8756C26.9139 12.987 26.8697 13.0938 26.7909 13.1726C26.7122 13.2514 26.6053 13.2956 26.4939 13.2956ZM29.7359 11.0856V11.7406H29.0979V11.0856H29.7359ZM32.561 7.50659C32.8716 7.50224 33.1781 7.57913 33.4499 7.72961C33.7085 7.87272 33.9222 8.08501 34.0669 8.34265C34.2156 8.60824 34.2919 8.90828 34.2879 9.21265V10.0026C34.2897 10.3032 34.2117 10.599 34.0619 10.8596C33.9169 11.1177 33.7057 11.3325 33.4499 11.4816C33.1962 11.6316 32.9066 11.71 32.6119 11.7086C32.3338 11.7098 32.058 11.6586 31.7989 11.5576C31.5492 11.4627 31.3238 11.3134 31.139 11.1206C31.0343 11.3137 30.8763 11.4727 30.6839 11.5786C30.4819 11.6896 30.2544 11.7461 30.0239 11.7426H29.6499L29.3599 11.6336V11.1966L29.6499 11.0876H30.0239C30.1194 11.0911 30.2147 11.0751 30.3039 11.0407C30.3931 11.0063 30.4744 10.9543 30.5429 10.8876C30.6102 10.8191 30.6627 10.7375 30.6971 10.6479C30.7315 10.5583 30.7471 10.4626 30.7429 10.3666V9.21564C30.7385 8.91071 30.8163 8.61021 30.9679 8.34564C31.1143 8.08923 31.3276 7.87732 31.5849 7.7326C31.8552 7.5817 32.1605 7.50482 32.4699 7.50964L32.561 7.50659ZM33.6329 9.21265C33.638 9.07272 33.6141 8.93325 33.5624 8.8031C33.5108 8.67295 33.4326 8.55494 33.3329 8.4566C33.2308 8.35857 33.11 8.28207 32.9778 8.23157C32.8455 8.18107 32.7044 8.15759 32.5629 8.1626H32.4779C32.2839 8.15877 32.092 8.20494 31.9209 8.29663C31.7626 8.38269 31.6324 8.51249 31.5459 8.67059C31.4561 8.83692 31.4106 9.02364 31.4139 9.21265V10.4816C31.5466 10.6626 31.7217 10.8082 31.9239 10.9056C32.1384 11.0102 32.3744 11.0632 32.613 11.0606C32.7917 11.0612 32.967 11.0117 33.1189 10.9176C33.2748 10.823 33.4039 10.6901 33.4939 10.5316C33.5869 10.3709 33.6352 10.1883 33.634 10.0026L33.6329 9.21265ZM35.9219 5.89362V10.6746C35.9191 10.7302 35.9283 10.7858 35.9488 10.8375C35.9694 10.8893 36.0008 10.936 36.0409 10.9746C36.1195 11.047 36.2231 11.0861 36.3299 11.0836H36.8749V11.7386H36.1349C35.9786 11.7409 35.8244 11.7019 35.6879 11.6256C35.5568 11.5522 35.448 11.4448 35.3729 11.3146C35.2963 11.1833 35.2566 11.0336 35.2579 10.8816V5.89062L35.9219 5.89362ZM36.6969 11.0866H37.5649C37.6692 11.0883 37.7701 11.0492 37.8459 10.9776C37.886 10.939 37.9174 10.8923 37.9379 10.8405C37.9584 10.7888 37.9677 10.7332 37.9649 10.6776V7.76263H38.6289V10.8876C38.6303 11.0397 38.5906 11.1893 38.514 11.3206C38.4388 11.4507 38.33 11.5582 38.199 11.6316C38.0625 11.7079 37.9083 11.7469 37.7519 11.7446H36.704L36.6969 11.0866ZM38.2289 7.1546C38.1456 7.15492 38.064 7.13052 37.9946 7.08447C37.9252 7.03842 37.871 6.97282 37.8388 6.89594C37.8067 6.81905 37.7982 6.73435 37.8142 6.65259C37.8302 6.57082 37.8702 6.4957 37.9289 6.43665C38.0099 6.35984 38.1173 6.31702 38.2289 6.31702C38.3405 6.31702 38.4479 6.35984 38.5289 6.43665C38.5872 6.49588 38.6267 6.57099 38.6425 6.65259C38.6583 6.73419 38.6496 6.81864 38.6175 6.89532C38.5855 6.97201 38.5315 7.03749 38.4624 7.08362C38.3932 7.12975 38.312 7.15445 38.2289 7.1546ZM38.9009 12.9686H39.3259C39.5157 12.9723 39.7033 12.9275 39.871 12.8386C40.0281 12.7532 40.1578 12.6249 40.2449 12.4686C40.3372 12.3031 40.3841 12.1161 40.3809 11.9266V7.72662H41.0369V11.9266C41.041 12.2294 40.9648 12.5279 40.816 12.7916C40.6715 13.0461 40.4592 13.2555 40.2029 13.3966C39.9344 13.5439 39.6322 13.619 39.3259 13.6146H38.9009V12.9686ZM41.9009 11.0866V11.7416H40.9739V11.0866H41.9009ZM41.7009 11.0866H42.5689C42.6732 11.0883 42.7741 11.0492 42.85 10.9776C42.8901 10.939 42.9214 10.8923 42.9419 10.8405C42.9625 10.7888 42.9716 10.7332 42.9689 10.6776V7.76263H43.6329V10.8876C43.6342 11.0397 43.5945 11.1893 43.5179 11.3206C43.4428 11.4507 43.334 11.5582 43.2029 11.6316C43.0665 11.7079 42.9122 11.7469 42.7559 11.7446H41.7009V11.0866ZM42.8589 13.4866C42.803 13.4872 42.7475 13.4763 42.6959 13.4546C42.6443 13.4329 42.5977 13.4009 42.5589 13.3606C42.5185 13.3231 42.4862 13.2776 42.4642 13.227C42.4421 13.1764 42.4308 13.1218 42.4309 13.0667C42.43 13.0105 42.4409 12.9546 42.463 12.903C42.485 12.8513 42.5177 12.8048 42.5589 12.7666C42.5983 12.7273 42.6451 12.6964 42.6966 12.6754C42.7481 12.6545 42.8033 12.6439 42.8589 12.6446C42.9146 12.6437 42.9698 12.654 43.0214 12.675C43.073 12.696 43.1197 12.7271 43.1589 12.7666C43.1994 12.8052 43.2314 12.8518 43.2527 12.9035C43.2741 12.9552 43.2844 13.0108 43.2829 13.0667C43.2814 13.1786 43.2358 13.2854 43.156 13.364C43.0763 13.4426 42.9689 13.4866 42.8569 13.4866H42.8589Z" fill="#1AB2C8"/>
<path d="M1.72955 49.885V50.667H3.45355V51.881H1.72559V53.733H0.225586V48.666H3.80255V49.881L1.72955 49.885Z" fill="#1AB2C8"/>
<path d="M5.75195 53.7368V50.0107H7.11798V50.7928H7.13293C7.19194 50.5571 7.34095 50.3539 7.54797 50.2267C7.75374 50.1063 7.98857 50.0444 8.22699 50.0478V51.0837C8.06615 51.0609 7.90213 51.0802 7.75098 51.1398C7.58329 51.1967 7.43002 51.2895 7.30194 51.4117C7.24784 51.4568 7.20357 51.5124 7.17175 51.5751C7.13994 51.6379 7.12126 51.7066 7.11694 51.7768V53.7368H5.75195Z" fill="#1AB2C8"/>
<path d="M12.1219 51.2333C12.1314 51.1728 12.1274 51.111 12.1101 51.0523C12.0928 50.9936 12.0628 50.9394 12.022 50.8938C11.9812 50.8481 11.9308 50.8121 11.8744 50.7883C11.818 50.7645 11.757 50.7536 11.6959 50.7563C11.3358 50.7545 10.9787 50.8203 10.6429 50.9503L10.3859 50.0783C10.8276 49.8997 11.2953 49.794 11.7709 49.7653C12.1984 49.7227 12.6278 49.8252 12.9899 50.0563C13.1634 50.1864 13.3006 50.3589 13.3881 50.5574C13.4757 50.7558 13.5108 50.9734 13.4899 51.1893V53.7373H12.1239V53.3573C12.0001 53.501 11.8466 53.6161 11.6739 53.6947C11.5012 53.7732 11.3135 53.8134 11.1239 53.8123C10.9888 53.8186 10.8542 53.7928 10.731 53.7372C10.6078 53.6816 10.4995 53.5977 10.4149 53.4923C10.2397 53.267 10.1487 52.9876 10.1579 52.7023C10.1501 52.4335 10.2325 52.1699 10.3919 51.9533C10.5657 51.7345 10.8007 51.5723 11.0669 51.4873C11.4088 51.3755 11.7672 51.3224 12.1269 51.3303L12.1219 51.2333ZM12.1219 52.0673C11.9821 52.044 11.8385 52.0595 11.7069 52.1123C11.6151 52.15 11.5381 52.2167 11.4879 52.3023C11.4504 52.3697 11.4298 52.4452 11.4279 52.5223C11.4248 52.5622 11.4318 52.6023 11.4482 52.6388C11.4646 52.6753 11.4899 52.7071 11.5219 52.7313C11.5869 52.7765 11.6646 52.7999 11.7439 52.7983C11.8122 52.7985 11.8801 52.786 11.9439 52.7613C12.0091 52.7376 12.0702 52.7039 12.1249 52.6613L12.1219 52.0673Z" fill="#1AB2C8"/>
<path d="M15.5928 53.7368V50.0148H16.9587V50.2149C17.1207 50.122 17.2928 50.0482 17.4717 49.9949C17.6497 49.9536 17.8321 49.9348 18.0148 49.9389C18.1678 49.9287 18.3212 49.9518 18.4645 50.0065C18.6077 50.0612 18.7374 50.1463 18.8447 50.2559C19.0486 50.5033 19.1512 50.8188 19.1318 51.1389V53.7388H17.7667V51.6229C17.7742 51.5715 17.7696 51.5191 17.7534 51.4698C17.7371 51.4205 17.7096 51.3757 17.673 51.3388C17.6365 51.302 17.5919 51.2741 17.5427 51.2575C17.4936 51.2408 17.4412 51.2358 17.3898 51.2429C17.3162 51.2435 17.2434 51.2573 17.1747 51.2838C17.1006 51.3116 17.0288 51.345 16.9598 51.3839V53.7388L15.5928 53.7368Z" fill="#1AB2C8"/>
<path d="M24.4371 53.5502C24.2209 53.6455 23.9958 53.7192 23.7651 53.7702C23.5729 53.8002 23.3786 53.8139 23.1841 53.8112C22.8054 53.8192 22.4305 53.7333 22.0931 53.5612C21.7846 53.4008 21.531 53.1518 21.3651 52.8462C21.1963 52.5103 21.1084 52.1396 21.1084 51.7637C21.1084 51.3878 21.1963 51.0171 21.3651 50.6812C21.532 50.3774 21.7854 50.13 22.0931 49.9702C22.4306 49.7983 22.8054 49.7124 23.1841 49.7202C23.3789 49.7205 23.5733 49.7379 23.7651 49.7722C23.9616 49.8071 24.1556 49.8545 24.3461 49.9142L23.9391 50.8832L23.9241 50.8762C23.7831 50.8362 23.6831 50.8122 23.6241 50.8012C23.5339 50.7894 23.443 50.7844 23.3521 50.7862C23.2384 50.7834 23.1256 50.806 23.0218 50.8524C22.918 50.8988 22.8258 50.9677 22.7521 51.0542C22.6002 51.2596 22.5182 51.5083 22.5182 51.7637C22.5182 52.0192 22.6002 52.2678 22.7521 52.4732C22.8263 52.5589 22.9186 52.6272 23.0223 52.673C23.1261 52.7188 23.2387 52.7411 23.3521 52.7382C23.6116 52.735 23.8663 52.6662 24.0921 52.5382L24.4371 53.5502Z" fill="#1AB2C8"/>
<path d="M26.4453 53.733V48.666H27.8113V50.171H27.8263C28.0941 49.9948 28.4058 49.8968 28.7263 49.888C28.9436 49.8761 29.1603 49.9195 29.3563 50.014C29.5489 50.1076 29.7091 50.2566 29.8163 50.442C29.9342 50.6521 29.9929 50.8902 29.9863 51.131V53.731H28.6193V51.615C28.6242 51.5219 28.5973 51.4299 28.5433 51.354C28.5193 51.3228 28.4892 51.2968 28.4548 51.2775C28.4204 51.2583 28.3825 51.2462 28.3433 51.242C28.2613 51.2325 28.1781 51.2387 28.0983 51.26C27.999 51.2848 27.9037 51.3235 27.8153 51.375V53.733H26.4453Z" fill="#1AB2C8"/>
<path d="M32.7552 49.817C32.6668 49.8187 32.5791 49.8023 32.4973 49.769C32.4154 49.7356 32.3413 49.6859 32.2792 49.623C32.2172 49.5631 32.1678 49.4913 32.1341 49.412C32.1004 49.3326 32.083 49.2472 32.083 49.161C32.083 49.0748 32.1004 48.9894 32.1341 48.91C32.1678 48.8306 32.2172 48.7589 32.2792 48.699C32.3413 48.6361 32.4155 48.5864 32.4973 48.5531C32.5791 48.5197 32.6668 48.5034 32.7552 48.505C32.8423 48.5039 32.9287 48.5206 33.0092 48.5539C33.0896 48.5873 33.1624 48.6367 33.2232 48.699C33.2853 48.7589 33.3346 48.8306 33.3683 48.91C33.4021 48.9894 33.4194 49.0748 33.4194 49.161C33.4194 49.2472 33.4021 49.3326 33.3683 49.412C33.3346 49.4913 33.2853 49.5631 33.2232 49.623C33.1624 49.6854 33.0896 49.7348 33.0092 49.7681C32.9287 49.8015 32.8423 49.8181 32.7552 49.817ZM33.4552 53.736H32.0952V50.159H33.4612L33.4552 53.736Z" fill="#1AB2C8"/>
<path d="M37.4713 53.9075C36.9082 53.9024 36.3554 53.7563 35.8633 53.4825V52.4996C36.0581 52.6298 36.272 52.729 36.4973 52.7935C36.7143 52.865 36.9408 52.9041 37.1693 52.9095C37.2719 52.9144 37.3743 52.8967 37.4693 52.8575C37.5012 52.8457 37.5287 52.8244 37.5482 52.7966C37.5676 52.7687 37.5781 52.7355 37.5782 52.7015C37.5775 52.6799 37.5721 52.6588 37.5624 52.6395C37.5528 52.6201 37.5391 52.6031 37.5223 52.5895C37.4725 52.5478 37.4165 52.514 37.3563 52.4896C37.2829 52.4576 37.2063 52.4265 37.1263 52.3965L37.0843 52.3815L37.0423 52.3665L37.0273 52.3595C36.8394 52.2954 36.6576 52.2144 36.4843 52.1175C36.3296 52.0271 36.1979 51.9022 36.0993 51.7526C35.9875 51.573 35.9324 51.3639 35.9413 51.1525C35.9313 50.9545 35.9673 50.7569 36.0466 50.5752C36.1259 50.3936 36.2463 50.2328 36.3983 50.1055C36.7852 49.8295 37.2561 49.6966 37.7303 49.7295C37.985 49.7302 38.2382 49.7693 38.4813 49.8455C38.697 49.9068 38.9021 50.001 39.0893 50.1246V51.1005C38.957 50.9736 38.8006 50.8747 38.6293 50.8096C38.4681 50.7459 38.2966 50.7119 38.1233 50.7095C37.9737 50.7049 37.825 50.7353 37.6893 50.7985C37.6404 50.8155 37.5977 50.8465 37.5662 50.8876C37.5348 50.9286 37.516 50.978 37.5123 51.0295C37.5136 51.0518 37.5197 51.0736 37.53 51.0934C37.5404 51.1133 37.5547 51.1306 37.5723 51.1445C37.6251 51.1877 37.685 51.2215 37.7493 51.2446L37.9943 51.3445C38.0243 51.3545 38.0543 51.3655 38.0843 51.3785C38.1143 51.3915 38.1443 51.4025 38.1753 51.4125L38.1902 51.4195C38.3638 51.4851 38.5312 51.5661 38.6902 51.6615C38.8324 51.7501 38.9536 51.8685 39.0453 52.0085C39.145 52.1665 39.1951 52.3508 39.1893 52.5375C39.1967 52.731 39.1566 52.9234 39.0724 53.0977C38.9882 53.2721 38.8625 53.4231 38.7063 53.5375C38.3473 53.795 37.9126 53.9252 37.4713 53.9075Z" fill="#1AB2C8"/>
<path d="M42.6113 52.0602C42.6298 52.2552 42.7247 52.435 42.8753 52.5602C43.0854 52.7041 43.3386 52.7712 43.5923 52.7502C43.7478 52.7507 43.9029 52.7383 44.0563 52.7131C44.2108 52.6866 44.3615 52.6416 44.5053 52.5792L44.8373 53.4882C44.5796 53.6162 44.3053 53.7077 44.0223 53.7601C43.7908 53.7969 43.5567 53.8157 43.3223 53.8162C43.0306 53.8387 42.7373 53.801 42.4607 53.7056C42.1841 53.6101 41.9301 53.4588 41.7143 53.2612C41.531 53.0611 41.3892 52.8267 41.2972 52.5714C41.2052 52.3162 41.1648 52.0452 41.1783 51.7742C41.1723 51.4097 41.2514 51.0487 41.4093 50.7202C41.5541 50.4189 41.7834 50.1663 42.0693 49.9932C42.3756 49.8141 42.7256 49.7238 43.0803 49.7322C43.4373 49.7218 43.7889 49.8205 44.0883 50.0151C44.3719 50.2095 44.5788 50.4967 44.6733 50.8272C44.785 51.2313 44.7902 51.6574 44.6883 52.0642L42.6113 52.0602ZM43.5173 51.2781C43.5204 51.1593 43.5025 51.0408 43.4643 50.9282C43.4364 50.8426 43.3803 50.769 43.3053 50.7192C43.2279 50.6726 43.1387 50.6493 43.0483 50.6522C42.9833 50.6525 42.9196 50.6704 42.8638 50.7038C42.808 50.7372 42.7623 50.785 42.7313 50.8422C42.6495 50.9727 42.6075 51.1242 42.6103 51.2781H43.5173Z" fill="#1AB2C8"/>
<path d="M2.0483 36.4051V38.9051C2.04152 39.2742 2.13149 39.6385 2.30928 39.962C2.47798 40.2651 2.72854 40.5146 3.03231 40.6821C3.36331 40.8598 3.73472 40.9487 4.11031 40.9401H4.2043C4.57748 40.9469 4.94618 40.8581 5.27529 40.6821C5.58162 40.516 5.83445 40.2663 6.00429 39.962C6.18213 39.6385 6.2721 39.2742 6.26528 38.9051V36.605H8.29927V38.9051C8.30843 39.6279 8.12372 40.3399 7.7643 40.967C7.41458 41.5766 6.9053 42.0793 6.29128 42.4211C5.65355 42.7771 4.93362 42.9595 4.20333 42.9501H4.10933C3.37661 42.9612 2.6539 42.7787 2.0143 42.4211C1.40236 42.0769 0.89403 41.5747 0.542316 40.967C0.178425 40.3414 -0.00888794 39.6288 0.000324116 38.9051V36.4051H2.0483ZM2.58333 45.8541C2.42897 45.8561 2.27575 45.8267 2.13308 45.7678C1.9904 45.7088 1.86123 45.6214 1.75331 45.511C1.64326 45.4048 1.55571 45.2775 1.49593 45.1367C1.43615 44.9959 1.40535 44.8446 1.40535 44.6916C1.40535 44.5386 1.43615 44.3872 1.49593 44.2464C1.55571 44.1056 1.64326 43.9783 1.75331 43.8721C1.86115 43.7615 1.99034 43.674 2.13301 43.6149C2.27569 43.5557 2.4289 43.5262 2.58333 43.5281C2.73859 43.5267 2.89256 43.5563 3.03615 43.6154C3.17974 43.6745 3.31003 43.7618 3.41933 43.8721C3.53131 43.9772 3.62053 44.1041 3.68154 44.2451C3.74255 44.386 3.77401 44.538 3.77401 44.6916C3.77401 44.8452 3.74255 44.9971 3.68154 45.1381C3.62053 45.279 3.53131 45.4059 3.41933 45.511C3.30995 45.6212 3.17961 45.7082 3.03603 45.7671C2.89245 45.8261 2.73852 45.8556 2.58333 45.8541ZM5.67531 45.8541C5.52095 45.8561 5.36779 45.8267 5.22512 45.7678C5.08244 45.7088 4.95321 45.6214 4.84529 45.511C4.73524 45.4048 4.64769 45.2775 4.58791 45.1367C4.52813 44.9959 4.49733 44.8446 4.49733 44.6916C4.49733 44.5386 4.52813 44.3872 4.58791 44.2464C4.64769 44.1056 4.73524 43.9783 4.84529 43.8721C5.06545 43.652 5.36402 43.5284 5.67531 43.5284C5.98661 43.5284 6.28517 43.652 6.50533 43.8721C6.61539 43.9783 6.70287 44.1056 6.76265 44.2464C6.82244 44.3872 6.85329 44.5386 6.85329 44.6916C6.85329 44.8446 6.82244 44.9959 6.76265 45.1367C6.70287 45.2775 6.61539 45.4048 6.50533 45.511C6.39738 45.6214 6.26811 45.7087 6.12545 45.7676C5.98278 45.8266 5.82967 45.856 5.67531 45.8541ZM6.2643 38.4011V35.7711C6.25707 35.2333 6.39529 34.7037 6.66433 34.238C6.9273 33.7847 7.30717 33.4104 7.7643 33.1541C8.23729 32.8861 8.77274 32.7482 9.3163 32.7541H12.1403V39.5731H10.1063V34.7631H9.3163C9.13229 34.7598 8.95041 34.8028 8.78731 34.8881C8.63441 34.9689 8.50879 35.0931 8.42629 35.2451C8.33992 35.4053 8.29617 35.5851 8.29927 35.7671V38.3971L6.2643 38.4011Z" fill="white"/>
<path d="M12.5156 40.6336H13.1716C13.3599 40.6377 13.5462 40.5947 13.7136 40.5086C13.8701 40.4243 13.9982 40.2956 14.0816 40.1386C14.1722 39.9703 14.2183 39.7817 14.2156 39.5906V33.1816H16.2506V39.5906C16.2574 40.1271 16.1207 40.6556 15.8547 41.1215C15.5887 41.5874 15.203 41.9737 14.7376 42.2406C14.2607 42.5115 13.72 42.6497 13.1716 42.6406H12.5156V40.6336Z" fill="white"/>
<path d="M19.9307 30.3799V37.0269C19.9236 37.0962 19.9313 37.1663 19.9534 37.2325C19.9754 37.2986 20.0112 37.3593 20.0585 37.4106C20.1058 37.4618 20.1634 37.5024 20.2276 37.5297C20.2917 37.557 20.361 37.5704 20.4307 37.5689H21.0067V39.5769H19.7357C19.4102 39.5804 19.0895 39.4983 18.8057 39.3389C18.5285 39.1842 18.2976 38.9585 18.1367 38.6849C17.9729 38.4116 17.8874 38.0985 17.8897 37.7799V30.3799H19.9307Z" fill="white"/>
<path d="M20.8537 37.5687V39.5776L19.9707 39.2607V37.8996L20.8537 37.5687ZM27.4117 36.1686C27.567 36.4862 27.7532 36.7877 27.9677 37.0687C28.0814 37.2254 28.2218 37.3609 28.3827 37.4687C28.471 37.5223 28.5688 37.5582 28.6707 37.5746V39.5837H20.8537V37.5746H25.8597C25.7884 37.478 25.7124 37.3633 25.6317 37.2306L25.3507 36.7676C25.3147 36.7146 25.2837 36.6677 25.2567 36.6157C25.2297 36.5637 25.1987 36.5157 25.1637 36.4637C24.8944 36.0139 24.568 35.6008 24.1927 35.2347C23.8724 34.947 23.4739 34.7608 23.0477 34.6996C22.4871 34.6393 21.9205 34.7237 21.4017 34.9446V33.0947C22.143 32.8063 22.9514 32.7364 23.7312 32.8932C24.511 33.0501 25.2295 33.4271 25.8017 33.9797C26.4636 34.6094 27.0075 35.3524 27.4077 36.1736M24.9587 42.8476C24.6478 42.844 24.3505 42.719 24.1304 42.4993C23.9104 42.2796 23.7849 41.9826 23.7807 41.6717C23.7803 41.5206 23.811 41.3711 23.8708 41.2324C23.9307 41.0937 24.0185 40.9689 24.1287 40.8657C24.3489 40.6456 24.6474 40.522 24.9587 40.522C25.27 40.522 25.5685 40.6456 25.7887 40.8657C25.8989 40.9689 25.9868 41.0937 26.0466 41.2324C26.1065 41.3711 26.1372 41.5206 26.1367 41.6717C26.1326 41.9826 26.0071 42.2796 25.787 42.4993C25.5669 42.719 25.2697 42.844 24.9587 42.8476ZM29.9647 39.5837H28.5687V37.5746H29.9687L29.9647 39.5837Z" fill="white"/>
<path d="M29.8879 37.5686V39.5766L29.0039 39.2596V37.8986L29.8879 37.5686ZM30.3409 37.5686C30.4831 37.5887 30.628 37.5739 30.7632 37.5255C30.8984 37.4771 31.0198 37.3965 31.1169 37.2907C31.2561 37.0505 31.3215 36.7747 31.3049 36.4976V33.3176H33.3529V35.6837C33.3637 36.6142 33.1525 37.534 32.7369 38.3666C32.4996 38.7839 32.1444 39.1218 31.7159 39.3381C31.2874 39.5544 30.8045 39.6395 30.3279 39.5826H29.8889V37.5746L30.3409 37.5686ZM30.9029 32.4276C30.7475 32.4292 30.5935 32.3997 30.4497 32.3408C30.3059 32.2819 30.1754 32.1948 30.0659 32.0847C29.954 31.9802 29.8647 31.8539 29.8037 31.7135C29.7427 31.5731 29.7112 31.4217 29.7112 31.2686C29.7112 31.1156 29.7427 30.9641 29.8037 30.8237C29.8647 30.6834 29.954 30.5571 30.0659 30.4526C30.1745 30.3407 30.3047 30.252 30.4485 30.1918C30.5924 30.1317 30.747 30.1013 30.9029 30.1026C31.0578 30.101 31.2115 30.1312 31.3542 30.1914C31.497 30.2516 31.6259 30.3406 31.7329 30.4526C31.8429 30.5582 31.9304 30.6848 31.9902 30.8251C32.05 30.9653 32.0807 31.1162 32.0807 31.2686C32.0807 31.4211 32.05 31.5719 31.9902 31.7122C31.9304 31.8524 31.8429 31.9791 31.7329 32.0847C31.625 32.195 31.4958 32.2823 31.3531 32.3413C31.2104 32.4003 31.0573 32.4296 30.9029 32.4276ZM34.0349 39.5766C33.5503 39.5725 33.0804 39.4099 32.6969 39.1136C32.2808 38.8109 31.9389 38.4177 31.6969 37.9636C31.4665 37.5595 31.3355 37.1063 31.3149 36.6416L31.2879 33.3116H33.3359V36.4966C33.3199 36.773 33.3898 37.0475 33.5359 37.2827C33.6352 37.3898 33.7588 37.4715 33.8963 37.5209C34.0338 37.5704 34.1811 37.586 34.3259 37.5667H36.3869V39.5746L34.0349 39.5766ZM33.9949 32.4276C33.8395 32.4293 33.6854 32.3999 33.5416 32.3409C33.3979 32.282 33.2674 32.1949 33.1579 32.0847C33.046 31.9802 32.9568 31.8539 32.8958 31.7135C32.8347 31.5731 32.8032 31.4217 32.8032 31.2686C32.8032 31.1156 32.8347 30.9641 32.8958 30.8237C32.9568 30.6834 33.046 30.5571 33.1579 30.4526C33.2665 30.3407 33.3967 30.252 33.5405 30.1918C33.6844 30.1317 33.8389 30.1013 33.9949 30.1026C34.1498 30.101 34.3035 30.1312 34.4462 30.1914C34.589 30.2516 34.7179 30.3406 34.8249 30.4526C34.9349 30.5582 35.0224 30.6848 35.0822 30.8251C35.1419 30.9653 35.1728 31.1162 35.1728 31.2686C35.1728 31.4211 35.1419 31.5719 35.0822 31.7122C35.0224 31.8524 34.9349 31.9791 34.8249 32.0847C34.717 32.195 34.5878 32.2823 34.4451 32.3413C34.3025 32.4003 34.1492 32.4296 33.9949 32.4276Z" fill="white"/>
<path d="M35.3604 39.2599V37.8859L36.2433 37.5689V39.5779L35.3604 39.2599ZM36.2433 37.5689H36.8323C36.902 37.5704 36.9713 37.557 37.0355 37.5297C37.0996 37.5024 37.1573 37.4618 37.2045 37.4106C37.2518 37.3593 37.2877 37.2986 37.3097 37.2325C37.3317 37.1663 37.3394 37.0962 37.3323 37.0269V30.3799H39.3663V37.7799C39.3684 38.0977 39.2852 38.4102 39.1253 38.6849C38.9693 38.9578 38.7427 39.1837 38.4693 39.3389C38.1879 39.4988 37.869 39.581 37.5453 39.5769H36.2453L36.2433 37.5689Z" fill="white"/>
<path d="M43.1492 30.3789H41.1152V39.5759H43.1492V30.3789Z" fill="white"/>
</g>
<defs>
<clipPath id="clip0_379_22005">
<rect width="114" height="58.295" fill="white"/>
</clipPath>
</defs>
</svg>
