<svg width="24" height="25" viewBox="0 0 24 25" fill="none" xmlns="http://www.w3.org/2000/svg">
<path d="M20 11.5234C19.7348 11.5234 19.4804 11.6288 19.2929 11.8163C19.1054 12.0039 19 12.2582 19 12.5234V18.5234C19 18.7887 18.8946 19.043 18.7071 19.2305C18.5196 19.4181 18.2652 19.5234 18 19.5234H6C5.73478 19.5234 5.48043 19.4181 5.29289 19.2305C5.10536 19.043 5 18.7887 5 18.5234V6.52344C5 6.25822 5.10536 6.00387 5.29289 5.81633C5.48043 5.62879 5.73478 5.52344 6 5.52344H12C12.2652 5.52344 12.5196 5.41808 12.7071 5.23054C12.8946 5.04301 13 4.78865 13 4.52344C13 4.25822 12.8946 4.00387 12.7071 3.81633C12.5196 3.62879 12.2652 3.52344 12 3.52344H6C5.20435 3.52344 4.44129 3.83951 3.87868 4.40212C3.31607 4.96473 3 5.72779 3 6.52344V18.5234C3 19.3191 3.31607 20.0821 3.87868 20.6448C4.44129 21.2074 5.20435 21.5234 6 21.5234H18C18.7956 21.5234 19.5587 21.2074 20.1213 20.6448C20.6839 20.0821 21 19.3191 21 18.5234V12.5234C21 12.2582 20.8946 12.0039 20.7071 11.8163C20.5196 11.6288 20.2652 11.5234 20 11.5234Z" fill="white"/>
<path d="M15.9999 5.52344H17.5799L11.2899 11.8034C11.1962 11.8964 11.1218 12.007 11.071 12.1289C11.0203 12.2507 10.9941 12.3814 10.9941 12.5134C10.9941 12.6454 11.0203 12.7762 11.071 12.898C11.1218 13.0199 11.1962 13.1305 11.2899 13.2234C11.3829 13.3172 11.4935 13.3916 11.6154 13.4423C11.7372 13.4931 11.8679 13.5192 11.9999 13.5192C12.132 13.5192 12.2627 13.4931 12.3845 13.4423C12.5064 13.3916 12.617 13.3172 12.7099 13.2234L18.9999 6.94344V8.52344C18.9999 8.78865 19.1053 9.04301 19.2928 9.23054C19.4804 9.41808 19.7347 9.52344 19.9999 9.52344C20.2652 9.52344 20.5195 9.41808 20.707 9.23054C20.8946 9.04301 20.9999 8.78865 20.9999 8.52344V4.52344C20.9999 4.25822 20.8946 4.00387 20.707 3.81633C20.5195 3.62879 20.2652 3.52344 19.9999 3.52344H15.9999C15.7347 3.52344 15.4804 3.62879 15.2928 3.81633C15.1053 4.00387 14.9999 4.25822 14.9999 4.52344C14.9999 4.78865 15.1053 5.04301 15.2928 5.23054C15.4804 5.41808 15.7347 5.52344 15.9999 5.52344Z" fill="white"/>
</svg>
