<svg width="28" height="28" viewBox="0 0 28 28" fill="none" xmlns="http://www.w3.org/2000/svg">
<g filter="url(#filter0_bi_1900_34161)">
<path d="M28 14C28 21.732 21.732 28 14 28C6.26801 28 0 21.732 0 14C0 6.26801 6.26801 0 14 0C21.732 0 28 6.26801 28 14Z" fill="#1AAEC8"/>
</g>
<path d="M12.0265 15.0672C11.9649 15.0672 10.6097 15.0672 9.9937 15.0672C9.66517 15.0672 9.5625 14.944 9.5625 14.636C9.5625 13.8146 9.5625 12.9728 9.5625 12.1514C9.5625 11.8229 9.6857 11.7202 9.9937 11.7202H12.0265C12.0265 11.6586 12.0265 10.4677 12.0265 9.91331C12.0265 9.09197 12.1702 8.31171 12.5809 7.59304C13.0121 6.85384 13.6281 6.36104 14.4084 6.07357C14.9217 5.88877 15.435 5.80664 15.9894 5.80664H18.0017C18.2892 5.80664 18.4124 5.92984 18.4124 6.21731V8.55811C18.4124 8.84557 18.2892 8.96877 18.0017 8.96877C17.4473 8.96877 16.8929 8.96877 16.3385 8.98931C15.7841 8.98931 15.4966 9.25624 15.4966 9.83117C15.4761 10.4472 15.4966 11.0426 15.4966 11.6792H17.8785C18.207 11.6792 18.3302 11.8024 18.3302 12.1309V14.6154C18.3302 14.944 18.2276 15.0466 17.8785 15.0466C17.1393 15.0466 15.5582 15.0466 15.4966 15.0466V21.7405C15.4966 22.0896 15.394 22.2128 15.0244 22.2128C14.162 22.2128 13.3201 22.2128 12.4577 22.2128C12.1497 22.2128 12.0265 22.0896 12.0265 21.7816C12.0265 19.6256 12.0265 15.1288 12.0265 15.0672Z" fill="white"/>
<defs>
<filter id="filter0_bi_1900_34161" x="-4" y="-4" width="36" height="36" filterUnits="userSpaceOnUse" color-interpolation-filters="sRGB">
<feFlood flood-opacity="0" result="BackgroundImageFix"/>
<feGaussianBlur in="BackgroundImageFix" stdDeviation="2"/>
<feComposite in2="SourceAlpha" operator="in" result="effect1_backgroundBlur_1900_34161"/>
<feBlend mode="normal" in="SourceGraphic" in2="effect1_backgroundBlur_1900_34161" result="shape"/>
<feColorMatrix in="SourceAlpha" type="matrix" values="0 0 0 0 0 0 0 0 0 0 0 0 0 0 0 0 0 0 127 0" result="hardAlpha"/>
<feOffset dy="0.5"/>
<feGaussianBlur stdDeviation="1"/>
<feComposite in2="hardAlpha" operator="arithmetic" k2="-1" k3="1"/>
<feColorMatrix type="matrix" values="0 0 0 0 1 0 0 0 0 1 0 0 0 0 1 0 0 0 0.4 0"/>
<feBlend mode="normal" in2="shape" result="effect2_innerShadow_1900_34161"/>
</filter>
</defs>
</svg>
