<svg width="28" height="28" viewBox="0 0 28 28" fill="none" xmlns="http://www.w3.org/2000/svg">
<g filter="url(#filter0_bi_1900_34173)">
<path d="M28 14C28 21.732 21.732 28 14 28C6.26801 28 0 21.732 0 14C0 6.26801 6.26801 0 14 0C21.732 0 28 6.26801 28 14Z" fill="#1AAEC8"/>
</g>
<path fill-rule="evenodd" clip-rule="evenodd" d="M10.6328 6.5332H17.3786C19.636 6.5332 21.4724 8.36965 21.4724 10.627V17.3728C21.4724 19.6301 19.636 21.4665 17.3786 21.4665H10.6328C8.37551 21.4665 6.53906 19.6301 6.53906 17.3728V10.627C6.53906 8.36965 8.37551 6.5332 10.6328 6.5332ZM9.90982 13.9999C9.90982 16.2584 11.7472 18.0958 14.0057 18.0958C16.2642 18.0958 18.1017 16.2584 18.1017 13.9999C18.1017 11.7414 16.2642 9.90399 14.0057 9.90399C11.7472 9.90399 9.90982 11.7413 9.90982 13.9999ZM17.1022 9.65899C17.1022 10.3452 17.6605 10.9034 18.3466 10.9034C19.0328 10.9034 19.5911 10.3451 19.5911 9.65896C19.5911 8.97279 19.0328 8.41454 18.3466 8.41454C17.6605 8.41454 17.1022 8.97282 17.1022 9.65899ZM18.3464 9.29688C18.1466 9.29688 17.9839 9.45954 17.9839 9.65942C17.9839 9.8593 18.1466 10.022 18.3464 10.022C18.5463 10.022 18.709 9.85932 18.709 9.65942C18.709 9.45951 18.5463 9.29688 18.3464 9.29688ZM14.0056 10.7861C12.2333 10.7861 10.7915 12.228 10.7915 14.0002C10.7915 15.7724 12.2333 17.2143 14.0056 17.2143C15.7778 17.2143 17.2196 15.7724 17.2196 14.0002C17.2196 12.228 15.7778 10.7861 14.0056 10.7861Z" fill="white"/>
<defs>
<filter id="filter0_bi_1900_34173" x="-4" y="-4" width="36" height="36" filterUnits="userSpaceOnUse" color-interpolation-filters="sRGB">
<feFlood flood-opacity="0" result="BackgroundImageFix"/>
<feGaussianBlur in="BackgroundImageFix" stdDeviation="2"/>
<feComposite in2="SourceAlpha" operator="in" result="effect1_backgroundBlur_1900_34173"/>
<feBlend mode="normal" in="SourceGraphic" in2="effect1_backgroundBlur_1900_34173" result="shape"/>
<feColorMatrix in="SourceAlpha" type="matrix" values="0 0 0 0 0 0 0 0 0 0 0 0 0 0 0 0 0 0 127 0" result="hardAlpha"/>
<feOffset dy="0.5"/>
<feGaussianBlur stdDeviation="1"/>
<feComposite in2="hardAlpha" operator="arithmetic" k2="-1" k3="1"/>
<feColorMatrix type="matrix" values="0 0 0 0 1 0 0 0 0 1 0 0 0 0 1 0 0 0 0.4 0"/>
<feBlend mode="normal" in2="shape" result="effect2_innerShadow_1900_34173"/>
</filter>
</defs>
</svg>
