<svg width="28" height="30" viewBox="0 0 28 30" fill="none" xmlns="http://www.w3.org/2000/svg">
<g filter="url(#filter0_bi_1900_34167)">
<path d="M28 14C28 21.732 21.732 28 14 28C6.26801 28 0 21.732 0 14C0 6.26801 6.26801 0 14 0C21.732 0 28 6.26801 28 14Z" fill="#1AAEC8"/>
</g>
<g filter="url(#filter1_d_1900_34167)">
<path d="M22.0683 17.8876C19.8223 17.518 18.81 15.2173 18.7691 15.1196C18.7659 15.1133 18.7638 15.107 18.7596 15.1007C18.6452 14.8676 18.6179 14.6755 18.6809 14.5295C18.8037 14.2418 19.2742 14.0927 19.585 13.994C19.6753 13.9656 19.7603 13.9383 19.8307 13.911C20.1373 13.7903 20.3557 13.659 20.5006 13.511C20.6728 13.3335 20.7064 13.1634 20.7043 13.0531C20.6991 12.7843 20.4933 12.5449 20.1646 12.4284C20.0544 12.3832 19.9273 12.3591 19.7992 12.3591C19.712 12.3591 19.5818 12.3706 19.459 12.4284C19.1965 12.5512 18.9613 12.6184 18.7586 12.6279C18.6515 12.6226 18.5759 12.5995 18.5265 12.5775C18.5328 12.4725 18.5391 12.3643 18.5465 12.253L18.5496 12.2047C18.6221 11.0675 18.7113 9.65309 18.3354 8.81305C18.0782 8.23762 17.7327 7.74305 17.3074 7.34193C16.9515 7.00592 16.5377 6.7329 16.0778 6.5313C15.2787 6.17848 14.5332 6.12598 14.1594 6.12598H14.1583C14.1436 6.12598 14.13 6.12598 14.1174 6.12598C14.0134 6.12703 13.8444 6.12913 13.8286 6.12913C13.4558 6.12913 12.7093 6.18163 11.9081 6.53445C11.4492 6.73605 11.0376 7.00802 10.6827 7.34403C10.2595 7.74515 9.91507 8.23867 9.65886 8.812C9.28294 9.65099 9.37219 11.0654 9.4436 12.2016V12.2037C9.45095 12.3255 9.45935 12.4525 9.4667 12.5764C9.4121 12.6006 9.32284 12.6279 9.19159 12.6279C8.97948 12.6279 8.72746 12.5607 8.4429 12.4273C8.3589 12.3885 8.26334 12.3685 8.15834 12.3685C7.98928 12.3685 7.80972 12.4179 7.65536 12.5092C7.46005 12.6237 7.33405 12.7843 7.2994 12.9639C7.27734 13.0815 7.27839 13.3157 7.53881 13.553C7.68266 13.6832 7.89267 13.8039 8.16464 13.911C8.23604 13.9394 8.32109 13.9656 8.41035 13.994C8.72116 14.0927 9.19264 14.2418 9.31549 14.5295C9.37744 14.6755 9.35014 14.8676 9.23569 15.1007C9.23254 15.107 9.22939 15.1133 9.22729 15.1196C9.19789 15.1868 8.93012 15.7906 8.38095 16.428C8.06908 16.7903 7.72572 17.0937 7.3603 17.3289C6.91403 17.6167 6.43205 17.8036 5.92698 17.8865C5.72852 17.9191 5.58676 18.0955 5.59831 18.296C5.60146 18.3538 5.61511 18.4115 5.63927 18.4672V18.4683C5.72012 18.6562 5.90598 18.8148 6.20839 18.9544C6.57801 19.1256 7.13034 19.2694 7.85172 19.3818C7.88847 19.4511 7.92628 19.6244 7.95253 19.743C7.97983 19.869 8.00818 19.9992 8.04913 20.1368C8.09323 20.2859 8.20664 20.4644 8.4996 20.4644C8.61091 20.4644 8.73796 20.4392 8.88602 20.4108C9.10233 20.3688 9.39845 20.3111 9.76701 20.3111C9.97177 20.3111 10.1839 20.3289 10.397 20.3646C10.8087 20.4329 11.1636 20.6828 11.5741 20.9726C12.1748 21.3968 12.8552 21.8767 13.8948 21.8767C13.9231 21.8767 13.9515 21.8757 13.9798 21.8736C14.0134 21.8757 14.0565 21.8767 14.1006 21.8767C15.1401 21.8767 15.8206 21.3968 16.4212 20.9737L16.4222 20.9726C16.8328 20.6839 17.1877 20.4339 17.5993 20.3657C17.8125 20.33 18.0246 20.3121 18.2294 20.3121C18.5822 20.3121 18.8615 20.3573 19.1104 20.4056C19.2731 20.4371 19.3991 20.4528 19.4968 20.4528H19.5062H19.5157C19.7299 20.4528 19.8874 20.3352 19.9472 20.1305C19.9872 19.995 20.0155 19.869 20.0439 19.7399C20.068 19.6286 20.1079 19.45 20.1436 19.3807C20.865 19.2673 21.4173 19.1245 21.7869 18.9534C22.0883 18.8137 22.2742 18.6552 22.355 18.4683C22.3792 18.4126 22.3939 18.3548 22.397 18.295C22.4086 18.0965 22.2668 17.9191 22.0683 17.8876Z" fill="white"/>
</g>
<defs>
<filter id="filter0_bi_1900_34167" x="-4" y="-4" width="36" height="36" filterUnits="userSpaceOnUse" color-interpolation-filters="sRGB">
<feFlood flood-opacity="0" result="BackgroundImageFix"/>
<feGaussianBlur in="BackgroundImageFix" stdDeviation="2"/>
<feComposite in2="SourceAlpha" operator="in" result="effect1_backgroundBlur_1900_34167"/>
<feBlend mode="normal" in="SourceGraphic" in2="effect1_backgroundBlur_1900_34167" result="shape"/>
<feColorMatrix in="SourceAlpha" type="matrix" values="0 0 0 0 0 0 0 0 0 0 0 0 0 0 0 0 0 0 127 0" result="hardAlpha"/>
<feOffset dy="0.5"/>
<feGaussianBlur stdDeviation="1"/>
<feComposite in2="hardAlpha" operator="arithmetic" k2="-1" k3="1"/>
<feColorMatrix type="matrix" values="0 0 0 0 1 0 0 0 0 1 0 0 0 0 1 0 0 0 0.4 0"/>
<feBlend mode="normal" in2="shape" result="effect2_innerShadow_1900_34167"/>
</filter>
<filter id="filter1_d_1900_34167" x="1.59766" y="6.12598" width="24.8008" height="23.751" filterUnits="userSpaceOnUse" color-interpolation-filters="sRGB">
<feFlood flood-opacity="0" result="BackgroundImageFix"/>
<feColorMatrix in="SourceAlpha" type="matrix" values="0 0 0 0 0 0 0 0 0 0 0 0 0 0 0 0 0 0 127 0" result="hardAlpha"/>
<feOffset dy="4"/>
<feGaussianBlur stdDeviation="2"/>
<feComposite in2="hardAlpha" operator="out"/>
<feColorMatrix type="matrix" values="0 0 0 0 0 0 0 0 0 0 0 0 0 0 0 0 0 0 0.1 0"/>
<feBlend mode="normal" in2="BackgroundImageFix" result="effect1_dropShadow_1900_34167"/>
<feBlend mode="normal" in="SourceGraphic" in2="effect1_dropShadow_1900_34167" result="shape"/>
</filter>
</defs>
</svg>
