<svg width="36" height="36" viewBox="0 0 36 36" fill="none" xmlns="http://www.w3.org/2000/svg">
<path d="M2.64624 0.552822C2.19192 1.08596 1.96252 1.76942 2.00504 2.46319V32.5364C1.96239 33.2302 2.19181 33.9137 2.64624 34.4468L2.74877 34.5448L19.9137 17.6985V17.3011L2.74877 0.454102L2.64624 0.552822Z" fill="white"/>
<path d="M25.6392 23.3154L19.918 17.6975V17.3001L25.6406 11.6836L25.7696 11.7558L32.5486 15.5361C34.485 16.6158 34.485 18.3825 32.5486 19.4628L25.7696 23.2432L25.6392 23.3154Z" fill="#D0DFE5"/>
<path d="M25.7676 23.2436L19.9159 17.5L2.64844 34.4469C3.04298 34.7884 3.54683 34.9837 4.07268 34.999C4.59852 35.0142 5.11324 34.8485 5.52764 34.5304L25.7676 23.2436Z" fill="#7289A0"/>
<path d="M25.7676 11.7563L5.52764 0.469548C5.11324 0.151485 4.59852 -0.0142829 4.07268 0.000965536C3.54683 0.016214 3.04298 0.211518 2.64844 0.553039L19.9159 17.5001L25.7676 11.7563Z" fill="#A1B1C0"/>
</svg>
