<svg width="36" height="36" viewBox="0 0 36 36" fill="none" xmlns="http://www.w3.org/2000/svg">
<g clip-path="url(#clip0_1894_24730)">
<path d="M28.4234 0.180664H8.6993C4.57761 0.180664 1.23633 3.52195 1.23633 7.64363V27.3677C1.23633 31.4894 4.57761 34.8307 8.6993 34.8307H28.4234C32.545 34.8307 35.8863 31.4894 35.8863 27.3677V7.64363C35.8863 3.52195 32.545 0.180664 28.4234 0.180664Z" fill="white"/>
<path d="M9.68563 2.44441C9.42425 2.44476 9.17371 2.54853 8.9891 2.7329C8.80448 2.91728 8.70092 3.16716 8.70117 3.4276C8.70142 3.68802 8.80545 3.93768 8.99039 4.1217C9.17533 4.30571 9.42604 4.40902 9.68739 4.4089C9.94875 4.40878 10.1994 4.30525 10.3841 4.12107C10.5689 3.93689 10.6727 3.68714 10.6727 3.42672V3.42475C10.6723 3.16433 10.568 2.91476 10.3829 2.73091C10.1978 2.54706 9.94699 2.44398 9.68563 2.44434V2.44441ZM27.3179 2.44441C27.0565 2.44476 26.806 2.54853 26.6214 2.73291C26.4368 2.91728 26.3332 3.16716 26.3334 3.4276C26.3337 3.68804 26.4377 3.93772 26.6227 4.12174C26.8077 4.30576 27.0584 4.40905 27.3198 4.4089C27.5811 4.40875 27.8317 4.30521 28.0165 4.12103C28.2012 3.93685 28.305 3.68712 28.305 3.42672V3.42475C28.3045 3.16433 28.2003 2.91476 28.0152 2.73091C27.8301 2.54706 27.5793 2.44398 27.3179 2.44434V2.44441Z" fill="white"/>
<path d="M9.64159 3.29251C9.29901 3.31089 9.31636 3.80916 9.31636 3.80916C11.1574 7.39444 14.5475 9.15301 18.4568 9.1532C22.3609 9.1475 25.7845 7.36953 27.6232 3.78898C27.6232 3.78898 27.6961 3.11474 26.9785 3.34845C25.093 6.47386 21.9251 8.32281 18.4591 8.32864C14.9865 8.32952 11.83 6.49998 9.94077 3.36863C9.81875 3.30973 9.72064 3.28827 9.64159 3.29251ZM22.1019 17.2286L21.0545 20.3481L20.0349 17.231H19.0395L20.6465 21.7654H21.4214L22.4711 18.7867L23.5197 21.7654H24.3009L25.9045 17.231H24.934L23.9126 20.3481L22.8652 17.2286H22.1019ZM16.5384 17.2298L14.506 21.7631H15.4615L15.8538 20.8855L15.8816 20.8192H17.9932L18.407 21.7631H19.3884L17.3746 17.2563L17.3567 17.2298L16.5384 17.2298ZM31.2568 17.2304V21.7602H32.1804V17.2304L31.2568 17.2304ZM4.77539 17.2309V21.7671H5.71171V19.9249H7.82508V21.7672H8.7614V17.231H7.82508V19.0611H5.71171V17.231L4.77539 17.2309ZM13.094 17.2321V19.8285C13.094 20.5661 12.7218 20.9599 12.0455 20.9599C11.3653 20.9599 10.9905 20.5551 10.9905 19.7974V17.235H10.0548V19.8286C10.0548 21.1049 10.7763 21.8364 12.0333 21.8364C13.3023 21.8364 14.0298 21.0908 14.0298 19.7911V17.2321L13.094 17.2321ZM26.6591 17.2338V21.7637H30.1428V20.938H27.5821V19.8147H29.2846V18.9885H27.5821V18.0602H30.0537V17.2339L26.6591 17.2338ZM16.9348 18.3778L17.6026 19.8966L17.6478 20.0009H16.2323L16.2768 19.8966L16.9348 18.3778Z" fill="#004268"/>
</g>
<defs>
<clipPath id="clip0_1894_24730">
<rect width="35" height="35" fill="white" transform="translate(1)"/>
</clipPath>
</defs>
</svg>
