<svg width="40" height="36" viewBox="0 0 40 36" fill="none" xmlns="http://www.w3.org/2000/svg">
<path d="M5.05303 36C3.88121 36 2.87771 35.608 2.04252 34.824C1.20734 34.04 0.790453 33.0987 0.791874 32V4.00001C0.791874 2.90001 1.20947 1.95801 2.04465 1.17401C2.87984 0.390007 3.88263 -0.00132641 5.05303 6.92042e-06H22.0976C22.7013 6.92042e-06 23.2077 0.192007 23.6167 0.576007C24.0258 0.960007 24.2296 1.43467 24.2282 2.00001C24.2282 2.56667 24.0237 3.04201 23.6146 3.42601C23.2055 3.81001 22.6999 4.00134 22.0976 4.00001H5.05303V32H34.8811V16C34.8811 15.4333 35.0856 14.958 35.4947 14.574C35.9038 14.19 36.4094 13.9987 37.0117 14C37.6153 14 38.1217 14.192 38.5308 14.576C38.9398 14.96 39.1437 15.4347 39.1423 16V32C39.1423 33.1 38.7247 34.042 37.8895 34.826C37.0543 35.61 36.0515 36.0013 34.8811 36H5.05303ZM30.6199 8.00001H28.4894C27.8857 8.00001 27.3793 7.80801 26.9703 7.42401C26.5612 7.04001 26.3574 6.56534 26.3588 6.00001C26.3588 5.43334 26.5633 4.95801 26.9724 4.57401C27.3815 4.19001 27.8871 3.99867 28.4894 4.00001H30.6199V2.00001C30.6199 1.43334 30.8245 0.958007 31.2336 0.574007C31.6426 0.190007 32.1483 -0.00132641 32.7505 6.92042e-06C33.3542 6.92042e-06 33.8606 0.192007 34.2696 0.576007C34.6787 0.960007 34.8825 1.43467 34.8811 2.00001V4.00001H37.0117C37.6153 4.00001 38.1217 4.19201 38.5308 4.57601C38.9398 4.96001 39.1437 5.43467 39.1423 6.00001C39.1423 6.56667 38.9377 7.04201 38.5287 7.42601C38.1196 7.81001 37.6139 8.00134 37.0117 8.00001H34.8811V10C34.8811 10.5667 34.6766 11.042 34.2675 11.426C33.8584 11.81 33.3528 12.0013 32.7505 12C32.1469 12 31.6405 11.808 31.2314 11.424C30.8224 11.04 30.6185 10.5653 30.6199 10V8.00001ZM18.3691 26L14.4276 21.05C14.2145 20.7833 13.9304 20.65 13.5753 20.65C13.2202 20.65 12.9362 20.7833 12.7231 21.05L8.46195 26.4C8.17787 26.7333 8.14236 27.0833 8.35542 27.45C8.56848 27.8167 8.88807 28 9.31418 28H30.6199C31.0461 28 31.3657 27.8167 31.5787 27.45C31.7918 27.0833 31.7563 26.7333 31.4722 26.4L25.6131 19.05C25.4 18.7833 25.116 18.65 24.7609 18.65C24.4058 18.65 24.1217 18.7833 23.9086 19.05L18.3691 26Z" fill="#717D85"/>
</svg>
