<svg width="21" height="20" viewBox="0 0 21 20" xmlns="http://www.w3.org/2000/svg">
<path id="c1" d="M17.5711 12.3132C16.4819 11.276 15.1855 10.5081 13.7711 10.0432C15.286 9.04952 16.2812 7.38646 16.2812 5.50595C16.2812 2.46998 13.6878 0 10.5 0C7.31223 0 4.71875 2.46998 4.71875 5.50595C4.71875 7.38646 5.71402 9.04952 7.22898 10.0432C5.81453 10.5081 4.51813 11.276 3.42895 12.3132C1.5402 14.1121 0.5 16.5037 0.5 19.0476H2.0625C2.0625 14.6167 5.84754 11.0119 10.5 11.0119C15.1525 11.0119 18.9375 14.6167 18.9375 19.0476H20.5C20.5 16.5037 19.4598 14.1121 17.5711 12.3132ZM10.5 9.52381C8.17379 9.52381 6.28125 7.72143 6.28125 5.50595C6.28125 3.29048 8.17379 1.4881 10.5 1.4881C12.8262 1.4881 14.7188 3.29048 14.7188 5.50595C14.7188 7.72143 12.8262 9.52381 10.5 9.52381Z"/>
</svg>
