<svg width="195" height="161" viewBox="0 0 195 161" fill="none" xmlns="http://www.w3.org/2000/svg">
<path d="M130.811 67.4346C142.134 78.8741 183.192 120.329 194.512 131.76C184.429 131.658 174.649 131.247 164.569 131.139C164.449 141.091 164.334 151.044 164.223 161C152.9 149.569 111.851 108.1 100.522 96.6741L130.811 67.4346Z" fill="#1AB2C8"/>
<path d="M135.73 81.3037C143.679 89.3406 171.405 117.329 179.367 125.36C172.28 125.289 165.409 124.999 158.327 124.924C158.243 131.921 158.162 138.917 158.084 145.914C150.13 137.883 122.418 109.886 114.448 101.857L135.73 81.3037Z" fill="white"/>
<path d="M115.351 96.6741C104.027 108.1 62.97 149.569 51.6493 161C51.5259 151.043 51.4108 141.089 51.304 131.139C41.2234 131.247 31.4438 131.658 21.3604 131.76C32.6838 120.329 73.7467 78.8741 85.0619 67.4346L115.351 96.6741Z" fill="#1AB2C8"/>
<path d="M101.422 101.857C93.4598 109.886 65.7477 137.883 57.7853 145.914C57.6988 138.917 57.6177 131.921 57.5422 124.924C50.4582 124.999 43.5895 125.289 36.5027 125.36C44.4568 117.329 72.1801 89.3434 80.1397 81.3037L101.422 101.857Z" fill="white"/>
<path d="M50.6657 68.9877C48.818 61.865 46.733 54.803 44.7749 47.7051C50.1991 43.2862 55.6675 38.9141 61.1055 34.509C61.5547 34.1366 61.8715 33.629 62.0087 33.0619C64.2863 26.4335 66.5823 19.8051 68.8967 13.1767C75.9919 12.9005 83.1091 12.8011 90.2014 12.4117C96.1753 8.40429 101.986 4.12617 107.896 0C113.179 3.72847 118.456 7.45793 123.727 11.1882C124.58 11.7406 125.384 12.605 126.489 12.5194C133.302 12.7127 140.105 12.9668 146.913 13.1767C149.379 20.1171 151.652 27.1489 154.226 34.0369C159.75 38.7016 165.467 43.1039 171.034 47.7106C169.074 54.803 166.989 61.8705 165.144 68.9933V60.6028C166.991 67.7255 169.076 74.7875 171.034 81.8854C165.61 86.3043 160.142 90.6763 154.704 95.0815C154.255 95.4543 153.938 95.9617 153.801 96.5286C151.525 103.157 149.23 109.785 146.915 116.414C139.817 116.69 132.703 116.792 125.611 117.179C119.637 121.186 113.826 125.464 107.916 129.59C102.633 125.864 97.3564 122.135 92.085 118.405C91.2316 117.853 90.4279 116.988 89.3232 117.074C82.5125 116.881 75.7073 116.624 68.9021 116.417C66.4358 109.476 64.1657 102.444 61.5889 95.5565C56.0653 90.8918 50.3481 86.4895 44.7803 81.88C46.7412 74.7876 48.8265 67.7201 50.6714 60.5974L50.6657 68.9877Z" fill="#1AB2C8"/>
<path d="M57.6859 68.4665C56.0619 62.2165 54.2336 56.0218 52.5186 49.7939C57.2772 45.9273 62.0772 42.0828 66.8469 38.2162C67.241 37.8892 67.519 37.4435 67.6395 36.9457C69.6354 31.1256 71.6488 25.312 73.6796 19.5048C79.9076 19.2645 86.1491 19.1734 92.3715 18.8337C97.619 15.3179 102.712 11.5562 107.896 7.94653C112.53 11.2165 117.16 14.4884 121.785 17.7621C122.534 18.2537 123.249 19.005 124.202 18.9305C130.178 19.0989 136.147 19.3226 142.121 19.5076C144.286 25.5837 146.277 31.7646 148.536 37.8074C153.372 41.9005 158.399 45.7615 163.282 49.8048C161.561 56.0272 159.73 62.2332 158.114 68.4777V61.1146C159.736 67.3646 161.567 73.5593 163.282 79.7873C158.52 83.6538 153.723 87.4983 148.953 91.3649C148.56 91.6924 148.283 92.1378 148.163 92.6352C146.166 98.4553 144.152 104.269 142.123 110.076C135.898 110.319 129.654 110.408 123.431 110.747C118.184 114.263 113.091 118.025 107.907 121.634C103.272 118.364 98.6429 115.093 94.0178 111.819C93.2693 111.327 92.5541 110.576 91.5985 110.651C85.6219 110.482 79.6535 110.256 73.6796 110.073C71.5144 103.997 69.5369 97.8166 67.2639 91.7737C62.428 87.6806 57.4015 83.8196 52.5186 79.7763C54.2392 73.5539 56.0702 67.348 57.6859 61.1035V68.4665Z" fill="white"/>
<path d="M98.0251 79.873C98.0417 79.5968 98.3015 79.4616 98.5942 79.387C99.3869 79.1826 100.182 78.9893 100.978 78.7904L103.886 78.0668C104.604 77.9178 105.259 77.5496 105.759 77.0129C106.259 76.4761 106.58 75.7974 106.678 75.0703C107.327 71.7285 107.948 68.3811 108.581 65.0393C108.579 65.0172 108.579 64.9951 108.581 64.973C108.658 64.741 108.727 64.4592 109.028 64.4592C109.329 64.4592 109.421 64.7354 109.468 64.9757C109.7 66.1605 109.923 67.3481 110.147 68.5357C110.578 70.8032 110.976 73.0762 111.451 75.3299C111.57 75.9863 111.881 76.5928 112.343 77.0741C112.805 77.5553 113.398 77.8901 114.049 78.0364C115.762 78.4894 117.491 78.8926 119.208 79.3234C119.4 79.3601 119.585 79.4213 119.761 79.5057C119.854 79.5403 119.935 79.6029 119.992 79.6849C120.049 79.7668 120.08 79.8643 120.08 79.9642C120.08 80.064 120.049 80.1615 119.992 80.2435C119.935 80.3255 119.854 80.388 119.761 80.4227C119.504 80.5334 119.237 80.6167 118.963 80.6711C117.394 81.0633 115.825 81.4445 114.267 81.8339C113.522 81.9902 112.845 82.3762 112.331 82.9376C111.817 83.4989 111.491 84.2072 111.401 84.9631C110.775 88.2773 110.146 91.5914 109.514 94.9056C109.514 94.9056 109.514 94.9277 109.514 94.9388C109.454 95.1956 109.371 95.4911 109.056 95.4718C108.741 95.4525 108.672 95.1957 108.625 94.9444C108.457 94.0965 108.302 93.2457 108.142 92.3951C107.648 89.7907 107.192 87.1809 106.639 84.5875C106.518 83.926 106.203 83.3155 105.733 82.8344C105.263 82.3532 104.66 82.0232 104.002 81.8864C102.229 81.4362 100.453 80.9998 98.6799 80.5552C98.2352 80.4447 98.0557 80.2624 98.0612 79.8868" fill="#1AB2C8"/>
<path d="M164.461 13.5679C165.863 13.5769 167.24 13.9348 168.469 14.6091C169.749 15.2855 170.805 16.3201 171.507 17.5864C172.218 18.8061 172.594 20.192 172.597 21.6039C172.6 23.0158 172.229 24.4033 171.523 25.6259C170.824 26.8886 169.778 27.924 168.507 28.6087C167.268 29.3046 165.871 29.6701 164.45 29.6701C163.029 29.6701 161.632 29.3046 160.393 28.6087C159.122 27.9233 158.073 26.8882 157.372 25.6259C156.661 24.4048 156.288 23.0167 156.291 21.6039C156.294 20.1911 156.673 18.8046 157.388 17.5864C158.09 16.3201 159.146 15.2855 160.426 14.6091C161.656 13.9347 163.034 13.5768 164.436 13.5679M164.436 14.9018C163.266 14.9082 162.117 15.2073 161.092 15.7717C160.021 16.3377 159.137 17.2009 158.545 18.2575C157.948 19.2721 157.631 20.4276 157.628 21.6052C157.625 22.7828 157.936 23.9401 158.529 24.9577C159.118 26.0089 159.993 26.8709 161.053 27.4433C162.085 28.0271 163.25 28.334 164.435 28.334C165.62 28.334 166.785 28.0271 167.817 27.4433C168.876 26.8714 169.75 26.0091 170.335 24.9577C170.926 23.9393 171.235 22.7823 171.232 21.6052C171.229 20.4281 170.914 19.273 170.319 18.2575C169.73 17.1992 168.845 16.3354 167.773 15.7717C166.75 15.2089 165.603 14.9099 164.436 14.9018ZM160.846 26.0706V17.4069H163.862C164.615 17.3733 165.37 17.4543 166.099 17.6471C166.548 17.7951 166.936 18.0861 167.204 18.4756C167.469 18.8465 167.612 19.2903 167.615 19.7461C167.618 20.0541 167.559 20.3595 167.441 20.6442C167.324 20.9289 167.15 21.1869 166.93 21.4031C166.443 21.8859 165.793 22.1678 165.108 22.193C165.382 22.299 165.635 22.4544 165.853 22.6515C166.346 23.1756 166.78 23.7516 167.149 24.3694L168.22 26.0652H166.491L165.712 24.698C165.344 23.9426 164.842 23.2598 164.232 22.6819C163.896 22.461 163.498 22.3563 163.097 22.3837H162.268V26.0652L160.846 26.0706ZM162.26 21.1961H163.978C164.562 21.2544 165.149 21.1277 165.657 20.8342C165.802 20.7205 165.918 20.5742 165.996 20.4072C166.074 20.2402 166.111 20.0573 166.104 19.8732C166.107 19.6269 166.032 19.386 165.889 19.1854C165.739 18.9782 165.53 18.8205 165.29 18.7325C164.828 18.6074 164.348 18.557 163.87 18.5833H162.26V21.1961Z" fill="#1AB2C8"/>
<path d="M130.515 46.2971H89.9993V53.0746H130.515V46.2971Z" fill="#1AB2C8"/>
<path d="M93.4298 46.2971H86.5667V115.337H93.4298V46.2971Z" fill="#1AB2C8"/>
<path d="M130.515 46.9644H123.652V69.8351H130.515V46.9644Z" fill="#1AB2C8"/>
</svg>
