<svg width="21" height="31" viewBox="0 0 21 31" fill="none" xmlns="http://www.w3.org/2000/svg">
<path d="M8.01961 13.6553H10.8449C12.4867 13.6553 13.7848 12.2371 13.7848 10.5352V7.53675C13.7848 7.13155 14.0903 6.80739 14.4721 6.80739H17.2974C18.9392 6.80739 20.2373 5.38918 20.2373 3.68734V0H16.7629C15.1211 0 13.823 1.41821 13.823 3.12005V6.11855C13.823 6.52375 13.5176 6.84791 13.1358 6.84791H10.3104C8.66867 6.84791 7.37054 8.26611 7.37054 9.96796V12.9259C7.37054 13.3311 7.0651 13.6553 6.6833 13.6553H3.81977C2.17802 13.6553 0.879883 15.0735 0.879883 16.7753V20.4627C0.879883 26.1355 5.19427 30.7143 10.5395 30.7143C15.8848 30.7143 20.1991 26.1355 20.1991 20.4627V13.6148H16.7247C15.083 13.6148 13.7848 15.033 13.7848 16.7348V20.4222C13.7848 22.3266 12.334 23.8259 10.5777 23.8259C8.8214 23.8259 7.37054 22.2861 7.37054 20.4222V14.3847C7.33236 13.9795 7.6378 13.6553 8.01961 13.6553Z" fill="white"/>
</svg>
