<svg width="28" height="28" viewBox="0 0 28 28" fill="none" xmlns="http://www.w3.org/2000/svg">
<path d="M14.0003 0.666504C6.66699 0.666504 0.666992 6.6665 0.666992 13.9998C0.666992 21.3332 6.66699 27.3332 14.0003 27.3332C21.3337 27.3332 27.3337 21.3332 27.3337 13.9998C27.3337 6.6665 21.3337 0.666504 14.0003 0.666504ZM14.0003 24.6665C8.12033 24.6665 3.33366 19.8798 3.33366 13.9998C3.33366 8.11984 8.12033 3.33317 14.0003 3.33317C19.8803 3.33317 24.667 8.11984 24.667 13.9998C24.667 19.8798 19.8803 24.6665 14.0003 24.6665ZM20.1203 8.1065L11.3337 16.8932L7.88032 13.4532L6.00033 15.3332L11.3337 20.6665L22.0003 9.99984L20.1203 8.1065Z" fill="white"/>
</svg>
