<svg width="28" height="28" viewBox="0 0 28 28" fill="none" xmlns="http://www.w3.org/2000/svg">
<path d="M8.26699 19.7332C8.51144 19.9776 8.82255 20.0998 9.20032 20.0998C9.5781 20.0998 9.88921 19.9776 10.1337 19.7332L14.0003 15.8665L17.9003 19.7665C18.1448 20.0109 18.4505 20.1274 18.8177 20.1158C19.1839 20.1052 19.4892 19.9776 19.7337 19.7332C19.9781 19.4887 20.1003 19.1776 20.1003 18.7998C20.1003 18.4221 19.9781 18.1109 19.7337 17.8665L15.867 13.9998L19.767 10.0998C20.0114 9.85539 20.1279 9.54961 20.1163 9.1825C20.1057 8.81628 19.9781 8.51095 19.7337 8.2665C19.4892 8.02206 19.1781 7.89984 18.8003 7.89984C18.4225 7.89984 18.1114 8.02206 17.867 8.2665L14.0003 12.1332L10.1003 8.23317C9.85588 7.98873 9.55055 7.87184 9.18432 7.8825C8.81721 7.89406 8.51144 8.02206 8.26699 8.2665C8.02255 8.51095 7.90033 8.82206 7.90033 9.19984C7.90033 9.57761 8.02255 9.88873 8.26699 10.1332L12.1337 13.9998L8.23366 17.8998C7.98921 18.1443 7.87277 18.4496 7.88433 18.8158C7.89499 19.1829 8.02255 19.4887 8.26699 19.7332ZM14.0003 27.3332C12.1559 27.3332 10.4225 26.9829 8.80033 26.2825C7.1781 25.5829 5.76699 24.6332 4.56699 23.4332C3.36699 22.2332 2.41721 20.8221 1.71766 19.1998C1.01721 17.5776 0.666992 15.8443 0.666992 13.9998C0.666992 12.1554 1.01721 10.4221 1.71766 8.79984C2.41721 7.17762 3.36699 5.7665 4.56699 4.5665C5.76699 3.3665 7.1781 2.41628 8.80033 1.71584C10.4225 1.01628 12.1559 0.666504 14.0003 0.666504C15.8448 0.666504 17.5781 1.01628 19.2003 1.71584C20.8225 2.41628 22.2337 3.3665 23.4337 4.5665C24.6337 5.7665 25.5834 7.17762 26.283 8.79984C26.9834 10.4221 27.3337 12.1554 27.3337 13.9998C27.3337 15.8443 26.9834 17.5776 26.283 19.1998C25.5834 20.8221 24.6337 22.2332 23.4337 23.4332C22.2337 24.6332 20.8225 25.5829 19.2003 26.2825C17.5781 26.9829 15.8448 27.3332 14.0003 27.3332ZM14.0003 24.6665C16.9559 24.6665 19.4728 23.6278 21.551 21.5505C23.6283 19.4723 24.667 16.9554 24.667 13.9998C24.667 11.0443 23.6283 8.52739 21.551 6.44917C19.4728 4.37184 16.9559 3.33317 14.0003 3.33317C11.0448 3.33317 8.52832 4.37184 6.45099 6.44917C4.37277 8.52739 3.33366 11.0443 3.33366 13.9998C3.33366 16.9554 4.37277 19.4723 6.45099 21.5505C8.52832 23.6278 11.0448 24.6665 14.0003 24.6665Z" fill="white"/>
</svg>
