<svg width="32" height="32" viewBox="0 0 32 32" fill="none" xmlns="http://www.w3.org/2000/svg">
<path d="M25.0003 29.5465L21.3337 25.5465L22.8803 23.9998L25.0003 26.1198L29.787 21.3332L31.3337 23.2132L25.0003 29.5465ZM14.667 19.9998H17.3337V22.6665H14.667V19.9998ZM14.667 9.33317H17.3337V17.3332H14.667V9.33317ZM16.0003 2.6665C23.3337 2.6665 29.3337 8.6665 29.3337 15.9998L29.227 17.7465C28.4137 17.4798 27.5603 17.3332 26.587 17.3332L26.667 15.9998C26.667 10.1065 21.8937 5.33317 16.0003 5.33317C10.107 5.33317 5.33366 10.1065 5.33366 15.9998C5.33366 21.8932 10.107 26.6665 16.0003 26.6665C16.947 26.6665 17.8537 26.5465 18.7337 26.3198C18.8403 27.2265 19.107 28.0798 19.4937 28.8665C18.3737 29.1732 17.2003 29.3332 16.0003 29.3332C8.62699 29.3332 2.66699 23.3332 2.66699 15.9998C2.66699 8.6665 8.62699 2.6665 16.0003 2.6665Z" fill="white"/>
</svg>
