<svg width="21" height="28" viewBox="0 0 21 28" fill="none" xmlns="http://www.w3.org/2000/svg">
<path d="M14.9997 21.9998C14.2663 21.9998 13.6383 21.7389 13.1157 21.2172C12.5939 20.6945 12.333 20.0665 12.333 19.3332C12.333 18.5998 12.5939 17.9718 13.1157 17.4492C13.6383 16.9274 14.2663 16.6665 14.9997 16.6665C15.733 16.6665 16.361 16.9274 16.8837 17.4492C17.4055 17.9718 17.6663 18.5998 17.6663 19.3332C17.6663 20.0665 17.4055 20.6945 16.8837 21.2172C16.361 21.7389 15.733 21.9998 14.9997 21.9998ZM9.66634 27.3332V26.5665C9.66634 25.5887 10.1552 24.8056 11.133 24.2172C12.1108 23.6278 13.3997 23.3332 14.9997 23.3332C16.5997 23.3332 17.8886 23.6278 18.8663 24.2172C19.8441 24.8056 20.333 25.5887 20.333 26.5665V27.3332H9.66634ZM13.6663 13.9998H10.9997V7.33317C10.9997 6.19984 10.5997 5.24961 9.79967 4.4825C8.99967 3.71628 8.06634 3.33317 6.99967 3.33317C5.93301 3.33317 4.99967 3.71628 4.19967 4.4825C3.39967 5.24961 2.99967 6.19984 2.99967 7.33317V20.6665C2.99967 21.7332 3.39967 22.6665 4.19967 23.4665C4.99967 24.2665 5.93301 24.6665 6.99967 24.6665V27.3332C5.11079 27.3332 3.52767 26.6941 2.25034 25.4158C0.972119 24.1385 0.333008 22.5554 0.333008 20.6665V7.33317C0.333008 5.44428 0.972119 3.86117 2.25034 2.58384C3.52767 1.30561 5.11079 0.666504 6.99967 0.666504C8.88856 0.666504 10.4717 1.30561 11.749 2.58384C13.0272 3.86117 13.6663 5.44428 13.6663 7.33317V13.9998ZM6.99967 11.3332C7.73301 11.3332 8.36101 11.0718 8.88367 10.5492C9.40545 10.0274 9.66634 9.39984 9.66634 8.6665C9.66634 7.93317 9.40545 7.30561 8.88367 6.78384C8.36101 6.26117 7.73301 5.99984 6.99967 5.99984C6.26634 5.99984 5.63879 6.26117 5.11701 6.78384C4.59434 7.30561 4.33301 7.93317 4.33301 8.6665C4.33301 9.39984 4.59434 10.0274 5.11701 10.5492C5.63879 11.0718 6.26634 11.3332 6.99967 11.3332ZM4.33301 19.3332C4.33301 20.0665 4.59434 20.6945 5.11701 21.2172C5.63879 21.7389 6.26634 21.9998 6.99967 21.9998C7.73301 21.9998 8.36101 21.7389 8.88367 21.2172C9.40545 20.6945 9.66634 20.0665 9.66634 19.3332C9.66634 18.5998 9.40545 17.9718 8.88367 17.4492C8.36101 16.9274 7.73301 16.6665 6.99967 16.6665C6.26634 16.6665 5.63879 16.9274 5.11701 17.4492C4.59434 17.9718 4.33301 18.5998 4.33301 19.3332ZM6.99967 20.6665C6.59967 20.6665 6.27745 20.5278 6.03301 20.2505C5.78856 19.9723 5.66634 19.6665 5.66634 19.3332C5.66634 18.9998 5.78856 18.6941 6.03301 18.4158C6.27745 18.1385 6.59967 17.9998 6.99967 17.9998C7.39967 17.9998 7.7219 18.1221 7.96634 18.3665C8.21079 18.6109 8.33301 18.9332 8.33301 19.3332C8.33301 19.6665 8.21079 19.9723 7.96634 20.2505C7.7219 20.5278 7.39967 20.6665 6.99967 20.6665Z" fill="white"/>
</svg>
