<svg width="32" height="32" viewBox="0 0 32 32" fill="none" xmlns="http://www.w3.org/2000/svg">
<g clip-path="url(#clip0_1449_77238)">
<path fill-rule="evenodd" clip-rule="evenodd" d="M18 5.00013C18 5.53056 17.7893 6.03927 17.4142 6.41434C17.0391 6.78942 16.5304 7.00013 16 7.00013C15.4696 7.00013 14.9609 6.78942 14.5858 6.41434C14.2107 6.03927 14 5.53056 14 5.00013C14 4.4697 14.2107 3.96099 14.5858 3.58592C14.9609 3.21084 15.4696 3.00013 16 3.00013C16.5304 3.00013 17.0391 3.21084 17.4142 3.58592C17.7893 3.96099 18 4.4697 18 5.00013ZM20.9 4.00013C20.6705 2.86984 20.0573 1.85365 19.1643 1.12375C18.2712 0.393849 17.1534 -0.00488281 16 -0.00488281C14.8466 -0.00488281 13.7288 0.393849 12.8357 1.12375C11.9427 1.85365 11.3295 2.86984 11.1 4.00013H6C5.46957 4.00013 4.96086 4.21084 4.58579 4.58592C4.21071 4.96099 4 5.4697 4 6.00013V30.0001C4 30.5306 4.21071 31.0393 4.58579 31.4143C4.96086 31.7894 5.46957 32.0001 6 32.0001H26C26.5304 32.0001 27.0391 31.7894 27.4142 31.4143C27.7893 31.0393 28 30.5306 28 30.0001V6.00013C28 5.4697 27.7893 4.96099 27.4142 4.58592C27.0391 4.21084 26.5304 4.00013 26 4.00013H20.9ZM16 10.0001H11V7.00013H7V29.0001H25V7.00013H21V10.0001H16ZM10 15.5001C10 15.1023 10.158 14.7208 10.4393 14.4395C10.7206 14.1582 11.1022 14.0001 11.5 14.0001H20.5C20.8978 14.0001 21.2794 14.1582 21.5607 14.4395C21.842 14.7208 22 15.1023 22 15.5001C22 15.898 21.842 16.2795 21.5607 16.5608C21.2794 16.8421 20.8978 17.0001 20.5 17.0001H11.5C11.1022 17.0001 10.7206 16.8421 10.4393 16.5608C10.158 16.2795 10 15.898 10 15.5001ZM11.5 19.0001C11.1022 19.0001 10.7206 19.1582 10.4393 19.4395C10.158 19.7208 10 20.1023 10 20.5001C10 20.898 10.158 21.2795 10.4393 21.5608C10.7206 21.8421 11.1022 22.0001 11.5 22.0001H20.5C20.8978 22.0001 21.2794 21.8421 21.5607 21.5608C21.842 21.2795 22 20.898 22 20.5001C22 20.1023 21.842 19.7208 21.5607 19.4395C21.2794 19.1582 20.8978 19.0001 20.5 19.0001H11.5Z" fill="white"/>
</g>
<defs>
<clipPath id="clip0_1449_77238">
<rect width="32" height="32" fill="white"/>
</clipPath>
</defs>
</svg>
