<svg width="22" height="16" viewBox="0 0 22 16" fill="none" xmlns="http://www.w3.org/2000/svg">
<path d="M9.26699 0.96644C9.53366 1.23311 9.66166 1.55533 9.65099 1.93311C9.63944 2.31089 9.50032 2.63311 9.23366 2.89977L5.46699 6.66644L20.3337 6.66644C20.7114 6.66644 21.0283 6.79444 21.2843 7.05044C21.5394 7.30555 21.667 7.62199 21.667 7.99977C21.667 8.37755 21.5394 8.69444 21.2843 8.95044C21.0283 9.20555 20.7114 9.33311 20.3337 9.33311L5.46699 9.33311L9.26699 13.1331C9.53366 13.3998 9.66699 13.7167 9.66699 14.0838C9.66699 14.45 9.53366 14.7664 9.26699 15.0331C9.00032 15.2998 8.68344 15.4331 8.31633 15.4331C7.9501 15.4331 7.63366 15.2998 7.36699 15.0331L1.26699 8.93311C1.13366 8.79977 1.03899 8.65533 0.98299 8.49977C0.927879 8.34422 0.900323 8.17755 0.900323 7.99977C0.900323 7.822 0.927879 7.65533 0.98299 7.49977C1.03899 7.34422 1.13366 7.19977 1.26699 7.06644L7.40032 0.933108C7.64477 0.688663 7.9501 0.566439 8.31632 0.566439C8.68344 0.566439 9.00032 0.699774 9.26699 0.96644Z" fill="#13B1C6"/>
</svg>
